<svg width="60" height="60" viewBox="0 0 60 60" fill="none" xmlns="http://www.w3.org/2000/svg">
<path d="M57.6562 27.6562H32.3438V2.34375C32.3438 1.0493 31.2945 0 30 0C28.7055 0 27.6562 1.0493 27.6562 2.34375V27.6562H2.34375C1.0493 27.6562 0 28.7055 0 30C0 31.2945 1.0493 32.3438 2.34375 32.3438H27.6562V57.6562C27.6562 58.9507 28.7055 60 30 60C31.2945 60 32.3438 58.9507 32.3438 57.6562V32.3438H57.6562C58.9507 32.3438 60 31.2945 60 30C60 28.7055 58.9507 27.6562 57.6562 27.6562Z" fill="#F2E7C2"/>
</svg>
