<svg width="400" height="149" viewBox="0 0 400 149" fill="none" xmlns="http://www.w3.org/2000/svg">
<g clip-path="url(#clip22)">
<path opacity="0.18" d="M396.918 104.228C392.552 114.079 382.917 123.578 368.517 131.078C362.768 134.094 356.207 136.762 348.993 139.02C317.102 148.942 275.955 149.625 237.472 148.697C181.703 147.34 126.386 143.352 72.3964 136.798C58.5121 135.12 49.4601 133.764 41.6915 131.078C35.5077 128.937 30.1504 125.956 23.8305 121.289C11.4241 112.121 2.94574 101.765 0.621967 90.9861C-2.91717 74.5852 8.71141 57.2474 34.5938 45.8212C57.637 35.6487 89.217 30.8792 117.063 23.6648C144.287 16.6021 168.809 6.96054 198.6 2.56139C239.757 -3.51979 286.543 1.63784 321.098 13.5771C355.654 25.5164 378.716 43.5056 390.889 62.5478C399.523 76.0397 403.033 90.4418 396.918 104.228Z" fill="#FF5533"/>
<path d="M108.274 87.568C108.274 87.568 86.6894 86.1091 69.1298 84.6635C51.5702 83.218 33.6996 78.3013 39.2513 73.0633C44.8031 67.8254 102.45 74.1654 110.792 71.9212C119.135 69.677 108.274 87.568 108.274 87.568Z" fill="#F1AF8C"/>
<path d="M117.803 77.9578L67.1269 75.0711L79.7666 70.8861C89.6661 72.6786 100.525 73.0352 110.88 71.9078C128.021 70.0116 128.264 73.7772 128.264 73.7772L117.803 77.9578Z" fill="url(#paint0_linear)"/>
<path d="M245.28 70.5068C248.196 70.953 251.24 71.4884 253.058 72.6261C254.565 73.5853 254.886 74.8212 255.002 76.0035C255.411 80.9604 252.62 85.8592 252.416 90.8206C252.29 93.8321 253.116 96.8348 253.301 99.8464C253.374 103.318 253.023 106.788 252.251 110.242L249.616 124.568C248.858 128.704 247.516 133.344 240.331 135.856C237.767 136.672 234.943 137.301 231.959 137.721C217.423 140.081 202.168 141.692 186.757 141.678C171.347 141.665 155.722 139.956 142.81 136.093C141.647 135.851 140.678 135.448 140.04 134.941C139.401 134.433 139.126 133.847 139.251 133.264C138.512 124.706 141.886 116.118 139.951 107.605C139.057 103.657 137.035 99.7438 137.346 95.7774C137.628 92.284 139.718 88.8797 141.235 85.4488C143.345 80.587 144.259 75.6318 143.957 70.6764C143.803 70.1374 144.01 69.5896 144.55 69.1059C145.386 68.5259 147.02 68.3519 148.508 68.2136C168.469 66.5042 188.639 65.3584 208.906 64.7826C215.09 64.6086 218.318 66.1835 223.773 67.058C230.909 68.2151 238.078 69.3647 245.28 70.5068Z" fill="white"/>
<path d="M160.632 98.3474C160.292 99.8732 159.806 101.524 157.453 102.613L156.753 86.1582C156.519 80.666 156.296 75.1425 157.997 69.6994C158.069 69.117 158.489 68.555 159.212 68.0753C161.283 66.9332 174.176 65.3984 173.408 67.8656C173.087 68.9007 162.382 90.5038 160.632 98.3474Z" fill="url(#paint1_linear)"/>
<path d="M218.989 67.5622C218.833 69.2353 217.326 70.8147 215.741 72.3272C214.263 73.7281 212.718 75.1157 211.074 76.4809C209.89 77.5506 208.434 78.5525 206.738 79.4657C206.342 79.6947 205.832 79.8768 205.25 79.9967C203.685 80.2733 202.032 79.7111 200.924 79.1311C199.815 78.5511 198.649 77.864 196.976 77.7926C196.274 77.7957 195.573 77.8165 194.876 77.8551C193.184 77.8551 191.658 77.4089 190.248 76.9628C189.917 76.8602 189.82 76.5166 190.19 76.6014C187.681 75.8608 184.832 75.0889 181.915 75.3611C180.729 75.5166 179.569 75.712 178.444 75.9455C177.644 76.0713 176.816 76.1551 175.975 76.1954C175.761 76.2156 175.539 76.198 175.352 76.1463C175.196 76.0697 175.103 75.9702 175.09 75.8652C174.553 74.267 174.412 72.646 174.672 71.0333C174.678 70.7517 174.8 70.4731 175.032 70.2124C175.408 69.9232 175.96 69.6905 176.619 69.5424C177.278 69.3943 178.017 69.3372 178.746 69.378C180.193 69.4713 181.606 69.6544 182.946 69.9224C188.517 70.8147 194.614 70.6451 200.447 70.4801C201.739 70.4752 203.021 70.3789 204.249 70.1945C206.3 69.8376 207.788 69.0345 209.315 68.3162C211.152 67.3991 213.252 66.6006 215.557 65.9426C218.337 65.2555 219.096 66.42 218.989 67.5622Z" fill="url(#paint2_linear)"/>
<path d="M160.467 120.37C160.379 121.481 160.369 122.703 161.935 123.555C163.06 124.08 164.464 124.462 166.009 124.662C178.571 126.733 192.259 126.878 205.017 125.077C208.323 124.604 211.658 123.966 213.962 122.783C214.589 122.504 214.993 122.137 215.109 121.739C215.053 121.316 214.762 120.906 214.264 120.548C211.736 118.259 211.347 115.609 211.191 113.044C210.705 106.204 211.133 99.3199 213.904 92.5962C216.675 85.8726 221.847 79.2961 230.277 73.6522C232.961 88.96 231.065 104.353 229.169 119.687C230.783 119.486 232.163 120.388 231.988 121.151C231.813 121.913 230.695 122.547 229.898 123.221C227.419 125.313 227.953 127.847 228.158 130.225C228.323 131.76 228.06 133.572 225.241 134.397C223.646 134.843 221.633 134.87 219.747 134.866L150.88 134.642C149.003 117.193 157.404 99.8419 157.686 82.3613C157.744 78.5243 157.501 74.5088 160.34 70.8414C161.4 69.4672 164.317 68.1644 165.688 70.364C166.816 72.1977 165.182 75.1424 164.939 77.0564C163.766 86.2592 162.732 95.4665 161.838 104.678C161.339 109.904 160.882 115.135 160.467 120.37Z" fill="url(#paint3_linear)"/>
<path d="M220.651 44.1298C221.731 43.8621 223.092 43.6836 224.152 43.9647C224.504 44.0802 224.803 44.227 225.03 44.3964C225.257 44.5657 225.408 44.7542 225.474 44.9507C226.145 46.374 224.502 47.8151 222.625 48.9662C221.517 49.6265 220.087 50.3046 218.279 50.3448C217.904 50.3634 217.524 50.3357 217.18 50.2645C216.208 50.0369 216.043 49.4123 216.121 48.926C216.373 47.9321 216.753 46.9458 217.258 45.9724C217.486 45.5682 217.91 45.1926 218.497 44.8737C219.085 44.5547 219.821 44.3005 220.651 44.1298V44.1298Z" fill="#F1AF8C"/>
<path d="M214.234 63.2522C214.934 64.9164 206.884 69.9446 203.539 70.6496C199.319 71.5419 193.875 71.0154 189.344 70.5782C187.737 70.4007 186.222 70.0791 184.887 69.6319C183.552 69.1848 182.423 68.6208 181.565 67.9726C180.525 67.2803 179.746 66.5126 179.261 65.7017C179.077 65.3833 179.018 65.0525 179.086 64.7246C179.267 64.2847 179.595 63.8602 180.058 63.4664C181.756 61.8376 182.863 60.0924 183.335 58.2999C183.704 56.8766 183.743 55.3418 185.562 54.1773C186.541 53.6043 187.737 53.1163 189.091 52.7362C192.995 51.4992 197.111 50.41 201.4 49.4793C204.852 48.7297 210.092 47.7437 213.807 48.7475C215.08 49.0911 215.382 49.6399 215.459 50.3046C215.527 50.7954 214.711 51.893 214.011 53.5839C213.923 53.7981 213.836 54.0301 213.758 54.2532C212.74 57.2417 212.901 60.2899 214.234 63.2522V63.2522Z" fill="#F1AF8C"/>
<path d="M214.409 53.5304C214.221 53.7743 214.027 54.0152 213.826 54.2532C207.205 61.9673 189.033 68.2983 181.74 67.986C181.695 67.9885 181.649 67.9885 181.604 67.986C180.564 67.2937 179.785 66.526 179.3 65.7151C179.116 65.3967 179.057 65.0658 179.125 64.738C179.306 64.2981 179.634 63.8736 180.097 63.4798C181.795 61.8509 182.902 60.1058 183.374 58.3132L214.059 53.5839L214.409 53.5304Z" fill="url(#paint4_linear)"/>
<path d="M167.02 45.446C166.71 46.0259 166.891 46.6381 167.526 47.1592C167.905 47.4716 168.43 47.7393 168.78 48.0516C169.635 48.8234 169.383 49.8362 170.666 50.4787C170.894 50.6022 171.205 50.687 171.551 50.7196C171.856 50.7251 172.156 50.6844 172.406 50.6037C172.655 50.5231 172.84 50.407 172.931 50.2735C173.099 50.0053 173.135 49.7235 173.038 49.4481C172.805 48.2702 172.611 47.0879 172.338 45.9145C172.251 45.5471 171.888 45.2051 171.311 44.9471C170.735 44.6891 169.981 44.5311 169.178 44.5001C168.635 44.5181 168.122 44.6223 167.729 44.795C167.335 44.9676 167.084 45.1978 167.02 45.446V45.446Z" fill="#F1AF8C"/>
<path d="M170.783 67.0001C169.606 69.0524 170.617 71.2252 171.93 73.2463C175.922 72.7354 179.59 71.793 182.625 70.498C183.08 70.3109 183.636 70.1838 184.235 70.1304C184.835 70.077 185.454 70.0992 186.028 70.1946C187.098 70.3061 187.866 70.3017 188.42 70.7345C191.638 73.2157 195.91 75.3747 200.982 77.0833C201.357 77.2578 201.859 77.3626 202.392 77.3778C202.878 77.3199 203.305 77.1857 203.597 76.9985C209.857 73.7883 215 70.1539 218.843 66.2238C219.157 65.965 219.311 65.672 219.29 65.3761C219.119 65.0521 218.748 64.7578 218.221 64.5284L213.573 62.1057C213.565 63.322 212.919 64.5196 211.691 65.5974C210.462 66.6751 208.687 67.6015 206.514 68.2984C203.199 69.3335 199.193 69.7752 195.255 70.1232C192.64 70.3597 189.878 70.5694 187.341 70.1812C182.411 69.445 180.117 66.8529 179.183 64.5105C179.107 64.089 179.285 63.666 179.699 63.288C175.391 63.1497 171.774 65.2556 170.783 67.0001Z" fill="white"/>
<path d="M176.743 67.7362C176.51 67.6261 176.2 67.5567 175.868 67.5399C175.709 67.546 175.555 67.567 175.414 67.6015C175.274 67.636 175.15 67.6834 175.051 67.7407C174.475 68.0624 174.086 68.4463 173.923 68.8561C173.04 70.4176 172.696 72.033 172.902 73.6434C172.89 73.9362 173.062 74.2244 173.398 74.4733C173.653 74.6082 173.979 74.7109 174.345 74.7718C174.711 74.8327 175.104 74.8498 175.489 74.8213C176.256 74.7592 176.993 74.6353 177.667 74.4554C179.669 73.9795 181.63 73.4694 183.549 72.9251C183.698 73.1544 183.981 73.3605 184.367 73.5214C184.753 73.6822 185.227 73.7915 185.739 73.8374C186.251 73.8834 186.78 73.8642 187.27 73.782C187.76 73.6999 188.191 73.5578 188.517 73.3712L193.476 76.3114C193.898 76.6308 194.547 76.8736 195.314 76.9985C195.754 77.0258 196.202 76.996 196.608 76.9124C197.014 76.8288 197.36 76.6948 197.608 76.5256C198.09 76.1821 198.42 75.7986 198.58 75.3968C199.478 73.6804 200.163 71.942 200.632 70.1901C200.706 70.0246 200.675 69.8528 200.545 69.6949C200.194 69.3915 199.261 69.3915 198.532 69.445C196.814 69.5743 195.13 69.7836 193.505 70.0696C192.644 70.2205 191.8 70.3917 190.977 70.5827C190.423 70.7121 189.188 71.1806 188.615 71.1583C188.041 71.136 187.195 70.7344 186.495 70.6675C185.933 70.6409 185.368 70.6319 184.803 70.6407C183.286 70.5827 182.09 70.092 181.011 69.6413C179.553 69.0167 178.269 68.3162 176.743 67.7362Z" fill="#FF5533"/>
<path d="M176.743 67.7362C176.51 67.6261 176.2 67.5567 175.868 67.5399C175.709 67.546 175.555 67.567 175.414 67.6015C175.274 67.636 175.15 67.6834 175.051 67.7407C174.475 68.0624 174.086 68.4463 173.923 68.8561C173.04 70.4176 172.696 72.033 172.902 73.6434C172.89 73.9362 173.062 74.2244 173.398 74.4733C173.653 74.6082 173.979 74.7109 174.345 74.7718C174.711 74.8327 175.104 74.8498 175.489 74.8213C176.256 74.7592 176.993 74.6353 177.667 74.4554C179.669 73.9795 181.63 73.4694 183.549 72.9251C183.698 73.1544 183.981 73.3605 184.367 73.5214C184.753 73.6822 185.227 73.7915 185.739 73.8374C186.251 73.8834 186.78 73.8642 187.27 73.782C187.76 73.6999 188.191 73.5578 188.517 73.3712L193.476 76.3114C193.898 76.6308 194.547 76.8736 195.314 76.9985C195.754 77.0258 196.202 76.996 196.608 76.9124C197.014 76.8288 197.36 76.6948 197.608 76.5256C198.09 76.1821 198.42 75.7986 198.58 75.3968C199.478 73.6804 200.163 71.942 200.632 70.1901C200.706 70.0246 200.675 69.8528 200.545 69.6949C200.194 69.3915 199.261 69.3915 198.532 69.445C196.814 69.5743 195.13 69.7836 193.505 70.0696C192.644 70.2205 191.8 70.3917 190.977 70.5827C190.423 70.7121 189.188 71.1806 188.615 71.1583C188.041 71.136 187.195 70.7344 186.495 70.6675C185.933 70.6409 185.368 70.6319 184.803 70.6407C183.286 70.5827 182.09 70.092 181.011 69.6413C179.553 69.0167 178.269 68.3162 176.743 67.7362Z" fill="url(#paint5_linear)"/>
<path d="M177.112 68.0084C176.905 67.9108 176.63 67.8493 176.334 67.8344C176.193 67.8404 176.056 67.8593 175.931 67.89C175.806 67.9206 175.695 67.9624 175.605 68.0128C175.104 68.3001 174.77 68.6408 174.633 69.0033C173.847 70.39 173.542 71.8249 173.729 73.2552C173.716 73.5149 173.868 73.7706 174.166 73.9914C174.393 74.1109 174.683 74.2019 175.008 74.2557C175.333 74.3096 175.682 74.3246 176.023 74.2992C176.71 74.247 177.369 74.1366 177.968 73.9735C179.747 73.5541 181.488 73.0812 183.189 72.635C183.323 72.8383 183.576 73.021 183.92 73.1631C184.264 73.3053 184.686 73.4015 185.14 73.4415C185.595 73.4815 186.065 73.4636 186.499 73.3899C186.933 73.3162 187.315 73.1894 187.603 73.0232L192.008 75.6332C192.381 75.918 192.958 76.1341 193.641 76.2445C194.033 76.2689 194.432 76.2425 194.793 76.1684C195.153 76.0943 195.462 75.9754 195.683 75.8251C196.111 75.5199 196.402 75.1786 196.539 74.8212C197.338 73.2976 197.948 71.7544 198.367 70.199C198.436 70.05 198.409 69.8949 198.289 69.7528C197.978 69.4851 197.151 69.4807 196.5 69.5298C194.975 69.6457 193.479 69.8326 192.037 70.0875C191.272 70.2179 190.522 70.3668 189.791 70.5336C189.295 70.6496 188.206 71.0645 187.691 71.0422C187.176 71.0199 186.437 70.6675 185.805 70.5961C185.307 70.5716 184.807 70.5626 184.307 70.5693C183.002 70.4504 181.819 70.1367 180.943 69.677C179.582 69.155 178.444 68.5348 177.112 68.0084Z" fill="url(#paint6_linear)"/>
<path d="M233.875 67.888C232.513 67.6738 231.444 67.2053 230.316 67.6114C228.081 68.4608 226.632 69.6679 226.262 70.9888C225.085 74.2324 219.203 125.92 218.804 129.159L218.415 132.403L218.026 142.308C218.026 142.308 228.624 141.946 228.226 141.415C227.827 140.884 232.543 75.5039 234.895 72.2604C235.414 71.5305 236.085 70.8253 236.898 70.1545C238.201 69.1015 236.665 68.3698 234.176 67.946L233.875 67.888Z" fill="#FF5533"/>
<path d="M157.462 66.7947C155.926 67.348 155.45 67.4015 154.798 69.204C153.622 72.4431 147.73 124.131 147.341 127.37L146.952 130.614L146.553 140.518C146.553 140.518 157.151 140.157 156.762 139.626C156.373 139.095 161.079 73.7147 163.432 70.4711C164.064 69.5788 166.495 67.58 166.845 66.9777C167.953 65.0503 158.639 66.3887 157.462 66.7947Z" fill="#FF5533"/>
<path d="M233.875 67.888C232.513 67.6738 231.444 67.2053 230.316 67.6114C228.081 68.4608 226.632 69.6679 226.262 70.9888C225.085 74.2324 219.203 125.92 218.804 129.159L218.415 132.403L218.026 142.308C218.026 142.308 228.624 141.946 228.226 141.415C227.827 140.884 232.543 75.5039 234.895 72.2604C235.414 71.5305 236.085 70.8253 236.898 70.1545C238.201 69.1015 236.665 68.3698 234.176 67.946L233.875 67.888Z" fill="url(#paint7_linear)"/>
<path d="M157.462 66.7947C155.926 67.348 155.45 67.4015 154.798 69.204C153.622 72.4431 147.73 124.131 147.341 127.37L146.952 130.614L146.553 140.518C146.553 140.518 157.151 140.157 156.762 139.626C156.373 139.095 161.079 73.7147 163.432 70.4711C164.064 69.5788 166.495 67.58 166.845 66.9777C167.953 65.0503 158.639 66.3887 157.462 66.7947Z" fill="url(#paint8_linear)"/>
<path d="M192.844 104.147L192.669 104.277C191.22 104.826 180.447 105.254 167.389 105.254C153.32 105.254 141.925 104.763 141.925 104.147C141.925 103.532 153.32 103.045 167.389 103.045C181.458 103.045 192.844 103.545 192.844 104.147Z" fill="#FF5533"/>
<path d="M192.844 104.147L192.669 104.277C191.22 104.826 180.447 105.254 167.389 105.254C153.32 105.254 141.925 104.763 141.925 104.147C141.925 103.532 153.32 103.045 167.389 103.045C181.458 103.045 192.844 103.545 192.844 104.147Z" fill="url(#paint9_linear)"/>
<path d="M368.517 131.078C362.768 134.093 356.208 136.762 348.994 139.019C317.103 148.942 275.955 149.625 237.472 148.697C181.703 147.339 126.387 143.352 72.3967 136.797C58.5124 135.12 49.4604 133.764 41.6918 131.078H368.517Z" fill="#3F3D56"/>
<path d="M112.387 69.4985C110.675 69.7728 109.122 70.223 107.846 70.8147C106.349 71.6223 106.028 72.7421 105.805 73.7951C105.036 77.4625 104.628 84.8197 104.832 88.5184C104.832 88.8842 124.278 90.0219 139.971 97.8878C143.636 99.7215 144.832 85.0517 146.514 82.6826C148.395 80.0196 149.746 77.2839 150.549 74.5089C150.997 72.8894 153.272 67.9325 148.478 68.0485C145.824 68.1154 141.906 69.3558 139.446 69.8332L130.754 71.5643C124.754 72.7466 118.415 68.3028 112.387 69.4985Z" fill="white"/>
<path d="M66.4657 76.9806L95.2066 69.0746C99.0472 68.0172 102.897 66.9554 106.495 65.7284C109.081 64.8361 111.677 63.7787 112.329 62.3331C112.472 62.1002 112.502 61.8558 112.418 61.617C112.334 61.3781 112.138 61.1505 111.843 60.95C111.249 60.6741 110.492 60.4847 109.665 60.4057C102.265 59.4197 94.3899 60.2763 86.806 60.892C74.5455 61.887 61.7987 62.2751 50.5105 64.6889C47.0297 65.4339 43.7044 66.3932 41.3709 67.812C40.1062 68.6274 39.1376 69.5314 38.5027 70.4889C36.8401 72.8714 36.9665 75.8429 41.0501 77.4714C47.3505 80.0145 60.0583 78.7429 66.4657 76.9806Z" fill="#F1AF8C"/>
<path d="M63.1211 55.7478C60.9917 56.6713 60.0195 58.0098 59.3097 59.3171C58.5681 60.6881 58.0481 62.0825 57.754 63.4887C57.5887 64.2695 57.5207 65.1127 58.4346 65.7775C59.1129 66.2002 59.986 66.549 60.9917 66.7992C74.9441 70.8146 91.7258 72.0594 108.002 73.215L119.397 74.027C120.136 74.113 120.914 74.0975 121.633 73.9824C122.186 73.8443 122.641 73.6369 122.946 73.3845C124.182 72.5383 125.026 71.5847 125.425 70.5826C124.238 71.1925 123.482 71.9532 123.257 72.7644C126.138 72.6707 128.999 72.4738 131.813 72.1754C133.087 72.083 134.295 71.8554 135.343 71.5107C136.355 71.0776 137.094 70.5273 137.482 69.9179C139.164 67.7227 139.251 65.3447 139.31 63.0202C139.402 62.7744 139.307 62.5215 139.042 62.3038C138.776 62.0862 138.356 61.917 137.851 61.8245L128.721 59.1788C128.17 58.9976 127.572 58.8478 126.942 58.7326C125.929 58.6075 124.877 58.5622 123.831 58.5987C111.191 58.63 99.2027 56.1359 86.6505 55.5381C81.6821 55.3016 76.6262 55.3596 71.7647 54.8287C72.2509 54.8822 70.4327 55.0785 70.3646 55.0785C69.6646 55.0785 68.6923 54.8242 67.895 54.8242C66.1088 54.8489 64.4067 55.1782 63.1211 55.7478Z" fill="#FF5533"/>
<path d="M144.628 63.7743C145.016 63.8058 145.384 63.8759 145.706 63.9795C146.029 64.0831 146.298 64.2178 146.496 64.3742C146.693 64.5306 146.813 64.7049 146.848 64.8849C146.884 65.0648 146.833 65.2462 146.699 65.4161C146.482 67.2201 145.267 68.969 143.17 70.4979C143.03 70.6065 142.833 70.6971 142.596 70.7612C142.28 70.8088 141.939 70.8088 141.624 70.7612C139.779 70.613 137.96 70.4057 136.179 70.141C135.994 70.1185 135.819 70.0807 135.664 70.0295C135.168 69.851 135.294 69.4985 135.45 69.2174C136.422 67.5265 136.509 65.7686 137.394 64.0866C138.279 62.4046 141.847 63.337 144.628 63.7743Z" fill="#FF5533"/>
<path d="M63.1211 55.7478C60.9917 56.6713 60.0195 58.0098 59.3097 59.3171C58.5681 60.6881 58.0481 62.0825 57.754 63.4887C57.5887 64.2695 57.5207 65.1127 58.4346 65.7775C59.1129 66.2002 59.986 66.549 60.9917 66.7992C74.9441 70.8146 91.7258 72.0594 108.002 73.215L119.397 74.027C120.136 74.113 120.914 74.0975 121.633 73.9824C122.186 73.8443 122.641 73.6369 122.946 73.3845C124.182 72.5383 125.026 71.5847 125.425 70.5826C124.238 71.1925 123.482 71.9532 123.257 72.7644C126.138 72.6707 128.999 72.4738 131.813 72.1754C133.087 72.083 134.295 71.8554 135.343 71.5107C136.355 71.0776 137.094 70.5273 137.482 69.9179C139.164 67.7227 139.251 65.3447 139.31 63.0202C139.402 62.7744 139.307 62.5215 139.042 62.3038C138.776 62.0862 138.356 61.917 137.851 61.8245L128.721 59.1788C128.17 58.9976 127.572 58.8478 126.942 58.7326C125.929 58.6075 124.877 58.5622 123.831 58.5987C111.191 58.63 99.2027 56.1359 86.6505 55.5381C81.6821 55.3016 76.6262 55.3596 71.7647 54.8287C72.2509 54.8822 70.4327 55.0785 70.3646 55.0785C69.6646 55.0785 68.6923 54.8242 67.895 54.8242C66.1088 54.8489 64.4067 55.1782 63.1211 55.7478Z" fill="url(#paint10_linear)"/>
<path d="M143.918 66.4735C145.795 66.8661 149.159 70.2257 149.937 71.1002C150.394 71.6044 150.598 72.1531 151.016 72.6618C151.609 73.2961 152.366 73.8954 153.272 74.4464L154.973 75.5663C156.302 76.4249 157.046 77.4449 157.112 78.4976C157.112 79.555 156.86 80.6302 157.307 81.6653C158.065 83.3741 160.758 84.7884 161.886 86.4392C163.179 88.3488 162.295 90.4234 162.859 92.4089C163.734 95.4383 167.973 98.1286 168.478 101.176C168.441 101.559 168.64 101.94 169.052 102.273C169.412 102.501 170.024 102.648 170.345 102.876C170.693 103.147 170.887 103.454 170.909 103.768L171.512 106.369C171.672 106.752 171.635 107.146 171.405 107.52C170.812 108.243 168.858 108.569 167.195 108.439C165.551 108.25 164.024 107.89 162.732 107.386C161.986 107.178 161.377 106.881 160.972 106.525C160.761 106.217 160.705 105.891 160.807 105.571C161.04 103.875 161.079 102.18 160.943 100.484C160.943 99.3512 160.616 98.2231 159.971 97.1293C159.358 96.2369 158.396 95.4338 157.676 94.5772C156.33 92.9838 155.814 91.268 156.169 89.5668C156.393 88.4916 156.966 87.4252 156.84 86.35C156.548 83.856 152.63 81.7813 151.006 79.4033C149.266 76.9181 149.772 73.8887 145.61 72.1041C144.843 71.8269 144.139 71.5144 143.51 71.1716C143.205 70.9964 143.027 70.7817 143 70.5577C142.974 70.3337 143.101 70.1115 143.364 69.9223C143.918 69.5788 144.288 66.8884 143.918 66.4735Z" fill="#FF5533"/>
<path d="M143.918 66.4735C145.795 66.8661 149.159 70.2257 149.937 71.1002C150.394 71.6044 150.598 72.1531 151.016 72.6618C151.609 73.2961 152.366 73.8954 153.272 74.4464L154.973 75.5663C156.302 76.4249 157.046 77.4449 157.112 78.4976C157.112 79.555 156.86 80.6302 157.307 81.6653C158.065 83.3741 160.758 84.7884 161.886 86.4392C163.179 88.3488 162.295 90.4234 162.859 92.4089C163.734 95.4383 167.973 98.1286 168.478 101.176C168.441 101.559 168.64 101.94 169.052 102.273C169.412 102.501 170.024 102.648 170.345 102.876C170.693 103.147 170.887 103.454 170.909 103.768L171.512 106.369C171.672 106.752 171.635 107.146 171.405 107.52C170.812 108.243 168.858 108.569 167.195 108.439C165.551 108.25 164.024 107.89 162.732 107.386C161.986 107.178 161.377 106.881 160.972 106.525C160.761 106.217 160.705 105.891 160.807 105.571C161.04 103.875 161.079 102.18 160.943 100.484C160.943 99.3512 160.616 98.2231 159.971 97.1293C159.358 96.2369 158.396 95.4338 157.676 94.5772C156.33 92.9838 155.814 91.268 156.169 89.5668C156.393 88.4916 156.966 87.4252 156.84 86.35C156.548 83.856 152.63 81.7813 151.006 79.4033C149.266 76.9181 149.772 73.8887 145.61 72.1041C144.843 71.8269 144.139 71.5144 143.51 71.1716C143.205 70.9964 143.027 70.7817 143 70.5577C142.974 70.3337 143.101 70.1115 143.364 69.9223C143.918 69.5788 144.288 66.8884 143.918 66.4735Z" fill="url(#paint11_linear)"/>
<path d="M183.529 135.615C183.685 136.329 178.561 137.181 168.945 137.114C159.329 137.047 151.706 136.329 157.462 134.549C157.462 134.549 161.643 134.473 163.831 133.264C166.018 132.055 168.333 129.913 167.72 126.067C167.107 122.221 169.276 119.651 155.148 112.169C141.021 104.687 141.954 104.138 141.954 104.138C141.954 104.754 153.35 105.245 167.419 105.245C180.486 105.245 191.259 104.799 192.698 104.268C191.561 105.16 184.696 110.434 181.847 112.584C178.746 114.94 168.955 118.929 170.666 125.84C172.377 132.751 174.079 133.822 178.123 134.393C182.168 134.964 183.374 134.906 183.529 135.615Z" fill="#FF5533"/>
<path d="M183.529 135.615C183.685 136.329 178.561 137.181 168.945 137.114C159.329 137.047 151.706 136.329 157.462 134.549C157.462 134.549 161.643 134.473 163.831 133.264C166.018 132.055 168.333 129.913 167.72 126.067C167.107 122.221 169.276 119.651 155.148 112.169C141.021 104.687 141.954 104.138 141.954 104.138C141.954 104.754 153.35 105.245 167.419 105.245C180.486 105.245 191.259 104.799 192.698 104.268C191.561 105.16 184.696 110.434 181.847 112.584C178.746 114.94 168.955 118.929 170.666 125.84C172.377 132.751 174.079 133.822 178.123 134.393C182.168 134.964 183.374 134.906 183.529 135.615Z" fill="url(#paint12_linear)"/>
<path d="M287.312 116.859C287.652 118.786 287.934 120.74 287.107 122.636C286.281 124.533 284.191 126.384 280.7 127.459C277.21 128.535 272.163 128.646 268.926 127.41C265.873 126.246 265.036 124.287 264.473 122.476L260.311 110.019C259.667 108.562 259.5 107.068 259.815 105.589C260.252 104.344 261.362 103.171 263.044 102.174C264.726 101.178 266.925 100.392 269.441 99.8866C271.249 99.5341 276.646 98.9943 278.522 99.5163C281.167 100.226 282.411 103.402 283.16 104.687C285.571 108.654 286.582 112.767 287.312 116.859Z" fill="#F1AF8C"/>
<path d="M277.987 91.066C280.71 93.7965 283.325 96.6475 283.471 99.6502C283.577 100.377 283.304 101.105 282.674 101.774C281.922 102.371 280.932 102.897 279.757 103.327C273.884 105.733 267.795 108.019 261.488 110.184C261.233 110.299 260.928 110.389 260.593 110.446C260.258 110.504 259.9 110.529 259.543 110.519C258.882 110.452 252.484 112.187 252.154 111.92C247.205 107.962 246.125 103.255 245.61 98.6999C245.182 94.9298 245.066 91.1597 244.949 87.3852C244.861 84.4316 250.783 79.4391 251.502 76.5033C251.726 75.6467 251.57 73.5631 253.719 73.3044C255.868 73.0456 258.26 75.0444 259.154 75.611C266.67 80.4162 272.64 85.6943 277.987 91.066Z" fill="white"/>
<path d="M262.674 102.724C260.826 101.582 258.707 100.538 256.84 99.3913C249.742 94.9297 247.671 89.2366 245.805 83.7756L242.946 92.797C242.756 93.6988 242.288 94.5836 241.556 95.4249C239.971 97.0311 246.203 108.48 248.362 109.555C250.16 110.447 250.491 112.044 253.029 112.352C254.643 112.544 256.228 112.067 257.569 111.612C259.961 110.8 267.944 108.935 268.537 107.596C269.402 105.878 262.674 104.232 262.674 102.724Z" fill="url(#paint13_linear)"/>
<path d="M221.915 118.871C216.616 119.317 211.279 119.821 205.902 119.705C201.546 119.607 197.287 119.098 192.941 118.884C186.757 118.581 180.515 118.884 174.322 119.192C170.987 119.357 166.767 119.906 166.466 121.423C166.369 121.905 166.728 122.391 166.544 122.864C166.203 123.756 164.132 124.274 162.207 124.452C160.282 124.631 158.221 124.595 156.441 124.983C154.662 125.371 153.311 126.411 154.361 127.174C155.109 127.723 156.684 127.87 158.085 127.964L168.731 128.686C167.078 129.507 168.119 130.917 170.092 131.582C172.066 132.247 174.604 132.372 176.976 132.617C181.4 133.063 185.668 133.955 190.199 133.955C195.78 133.955 200.895 132.59 205.493 131.149C208.342 130.257 211.22 129.306 214.575 128.972C216.275 128.822 218.011 128.777 219.737 128.838C233.116 129.128 245.882 131.89 259.281 131.908C264.272 131.944 269.223 131.488 273.797 130.569C279.028 129.485 283.714 127.486 284.881 124.907C287.681 118.701 271.356 118.407 262.256 117.907C248.819 117.189 235.187 117.769 221.915 118.871Z" fill="#F1AF8C"/>
<path d="M259.164 113.642V139.68C259.161 140.821 258.172 141.915 256.412 142.721C254.653 143.528 252.268 143.981 249.781 143.981H237.54C235.055 143.979 232.673 143.526 230.915 142.72C229.158 141.913 228.17 140.82 228.167 139.68V113.963C228.167 113.085 228.927 112.242 230.28 111.62C231.632 110.999 233.467 110.649 235.382 110.648V110.648C235.8 110.648 236.202 110.572 236.499 110.437C236.796 110.301 236.964 110.117 236.966 109.925V94.4344H249.791V109.903C249.794 110.095 249.962 110.279 250.259 110.414C250.556 110.55 250.957 110.626 251.376 110.626H252.591C254.334 110.626 256.006 110.943 257.239 111.509C258.471 112.075 259.164 112.842 259.164 113.642Z" fill="#FF5533"/>
<path d="M259.164 113.642V139.68C259.161 140.821 258.172 141.915 256.412 142.721C254.653 143.528 252.268 143.981 249.781 143.981H237.54C235.055 143.979 232.673 143.526 230.915 142.72C229.158 141.913 228.17 140.82 228.167 139.68V113.963C228.167 113.085 228.927 112.242 230.28 111.62C231.632 110.999 233.467 110.649 235.382 110.648V110.648C235.8 110.648 236.202 110.572 236.499 110.437C236.796 110.301 236.964 110.117 236.966 109.925V94.4344H249.791V109.903C249.794 110.095 249.962 110.279 250.259 110.414C250.556 110.55 250.957 110.626 251.376 110.626H252.591C254.334 110.626 256.006 110.943 257.239 111.509C258.471 112.075 259.164 112.842 259.164 113.642Z" fill="url(#paint14_linear)"/>
<path d="M249.635 92.6721H237.462C236.157 92.6721 235.1 93.1565 235.1 93.7541C235.1 94.3516 236.157 94.836 237.462 94.836H249.635C250.94 94.836 251.998 94.3516 251.998 93.7541C251.998 93.1565 250.94 92.6721 249.635 92.6721Z" fill="#FF5533"/>
<path d="M249.635 92.6721H237.462C236.157 92.6721 235.1 93.1565 235.1 93.7541C235.1 94.3516 236.157 94.836 237.462 94.836H249.635C250.94 94.836 251.998 94.3516 251.998 93.7541C251.998 93.1565 250.94 92.6721 249.635 92.6721Z" fill="url(#paint15_linear)"/>
<path d="M100.418 72.47C101.073 71.91 102.173 71.4872 103.489 71.2894C104.805 71.0917 106.237 71.1342 107.487 71.4082C108.696 71.7201 109.645 72.2075 110.185 72.7937C110.725 73.38 110.826 74.032 110.472 74.6473C110.347 74.9003 110.086 75.1349 109.713 75.3299C109.312 75.4988 108.847 75.6333 108.342 75.727C107.267 75.9971 106.1 76.1812 104.891 76.2713C100.496 76.4855 98.9013 73.9781 100.418 72.47Z" fill="#F1AF8C"/>
<path d="M93.8649 56.9837C93.5588 57.1863 93.3636 57.4199 93.2959 57.6645C93.2282 57.9092 93.29 58.1577 93.4759 58.3891C94.1857 59.0048 96.2081 58.9869 97.5012 58.6211C98.7944 58.2552 99.718 57.6574 101.001 57.2826C103.539 56.5464 104.016 55.3195 100.525 54.7395C97.5304 54.2442 95.0608 55.9619 93.8649 56.9837Z" fill="#F1AF8C"/>
<path d="M102.479 57.2426C102.022 57.7556 101.721 58.3937 102.479 58.813C102.762 58.9426 103.101 59.0427 103.476 59.1066C103.85 59.1705 104.249 59.1967 104.648 59.1834C105.466 59.1833 106.275 59.1079 107.029 58.9615C107.782 58.8151 108.463 58.6008 109.033 58.3312C109.297 58.172 109.627 58.0385 110.005 57.9386C110.744 57.7958 111.619 57.9787 112.387 57.8672C112.796 57.7763 113.139 57.6333 113.375 57.4553C113.611 57.2772 113.731 57.0717 113.719 56.8633C113.913 55.7435 111.677 54.0347 108.965 53.9588C105.921 53.8696 103.432 56.1807 102.479 57.2426Z" fill="#F1AF8C"/>
<path d="M114.759 56.3591C113.128 57.1046 111.887 58.0109 111.133 59.0093C111.026 59.1109 110.966 59.2214 110.954 59.334C110.942 59.4467 110.98 59.5593 111.065 59.6651C111.205 59.759 111.39 59.8371 111.606 59.8935C111.821 59.9499 112.062 59.9832 112.309 59.9908C113.171 60.0513 114.052 60.0096 114.869 59.8698C115.686 59.7301 116.411 59.4968 116.976 59.1922C117.492 58.9066 117.948 58.5408 118.755 58.4783C119.562 58.4159 120.165 58.6434 120.865 58.5765C121.161 58.5355 121.425 58.4566 121.627 58.3491C121.828 58.2417 121.959 58.11 122.003 57.9697C122.084 57.6865 122.028 57.3985 121.838 57.1265C120.846 55.2972 117.579 55.0697 114.759 56.3591Z" fill="#F1AF8C"/>
<path d="M126.009 57.3585C125.122 57.8278 124.424 58.3656 123.948 58.9468C123.714 59.239 123.649 59.5538 123.758 59.8609C123.867 60.1681 124.147 60.4571 124.57 60.7002C124.987 60.8896 125.502 61.0274 126.066 61.1008C126.631 61.1741 127.226 61.1806 127.798 61.1196C128.947 60.9943 129.972 60.6978 130.715 60.2764C131.556 59.858 132.027 59.3108 132.037 58.7416C132.026 58.4593 131.826 58.1854 131.465 57.9571C131.103 57.7288 130.596 57.5572 130.015 57.4656C128.819 57.3005 126.884 56.8276 126.009 57.3585Z" fill="#F1AF8C"/>
<path d="M192.844 104.147C192.838 104.174 192.819 104.199 192.789 104.222C192.759 104.245 192.718 104.264 192.669 104.278L192.844 104.147Z" fill="url(#paint16_linear)"/>
<path d="M151.298 107.744L160.826 112.923L169.295 118.648L185.532 107.851L151.298 107.744Z" fill="#FF5533"/>
<path d="M169.295 118.648L185.532 107.851L151.298 107.744" fill="url(#paint17_linear)"/>
<path d="M174.37 53.2448C174.701 54.0388 175.361 54.7962 176.315 55.4756C176.977 55.8662 177.726 56.2236 178.551 56.5419L182.538 58.1972C186.252 59.7454 190.569 61.3917 195.576 61.2311C197.273 61.154 198.923 60.9299 200.438 60.5708C206.787 59.1654 211.502 56.4929 214.37 53.5348C217.085 50.54 218.67 47.3551 219.057 44.1163C219.492 41.9601 219.635 39.7935 219.485 37.6292C219.349 36.3531 218.95 34.9968 217.103 34.0376C215.706 33.3953 213.996 32.915 212.115 32.6366C204.278 31.2669 195.411 30.5887 187.555 31.9228C181.527 32.9445 176.033 33.0649 173.106 35.6616C171.638 36.9599 171.619 40.025 172.134 41.4617C172.756 43.2106 172.319 45.08 172.523 46.8468C172.696 49.0015 173.315 51.1438 174.37 53.2448V53.2448Z" fill="#F1AF8C"/>
<path d="M167.905 32.1548C167.808 32.0242 167.779 31.8852 167.819 31.7485C167.859 31.6119 167.968 31.4814 168.137 31.3673C168.305 31.2532 168.529 31.1585 168.791 31.0908C169.053 31.0231 169.345 30.9841 169.645 30.9769L174.04 30.5575C174.681 29.0115 176.03 27.5455 177.997 26.2566C178.95 25.5634 180.124 24.9394 181.478 24.405C183.479 23.7132 185.785 23.2305 188.235 22.9907C192.518 22.5171 196.968 22.4522 201.308 22.7998C205.648 23.1475 209.786 23.9003 213.466 25.0118C215.848 25.7435 218.046 26.6269 220.671 27.1578C223.296 27.6887 226.582 27.8003 228.877 27.0106C228.656 28.0234 227.947 29.0011 226.802 29.873C225.657 30.7449 224.104 31.4892 222.256 32.0522C222.925 32.1724 223.511 32.3736 223.951 32.6345C224.391 32.8953 224.669 33.206 224.755 33.5334C224.988 34.1804 224.443 34.8273 224.346 35.4832C223.5 41.4751 220.729 43.7684 218.211 46.0884C218.503 43.7148 218.337 37.8969 215.547 35.8936C214.878 35.3642 213.915 34.9255 212.756 34.6221C211.636 34.4024 210.435 34.2813 209.217 34.2652C202.158 33.9707 195.08 33.6718 187.992 33.6851C185.439 33.6655 182.887 33.7671 180.379 33.9885C179.087 34.0922 177.861 34.327 176.791 34.6756C176.265 34.8549 175.842 35.0904 175.559 35.3618C175.276 35.6331 175.142 35.9321 175.168 36.2327C175.275 36.7547 176.014 37.2054 176.286 37.7184C176.714 38.526 175.955 39.3558 175.314 40.1277C174.176 41.9614 173.466 44.6473 172.397 46.4989C169.81 42.2157 168.362 36.5718 167.905 32.1548Z" fill="#3F3D56"/>
<path d="M137.248 95.7774C137.248 95.7774 132.154 85.6227 127.137 83.1778C122.12 80.7328 108.663 78.1406 108.663 78.1406L108.313 87.5725C108.313 87.5725 134.575 93.6983 137.248 95.7774Z" fill="url(#paint18_linear)"/>
<path d="M144.745 63.8277C145.133 63.8594 145.501 63.9295 145.823 64.0331C146.146 64.1366 146.416 64.2712 146.614 64.4275C146.812 64.5837 146.934 64.7579 146.97 64.9379C147.007 65.1178 146.957 65.2993 146.825 65.4696C146.601 67.275 145.383 69.0248 143.286 70.5559C143.146 70.6632 142.949 70.7523 142.713 70.8146C142.397 70.8623 142.056 70.8623 141.74 70.8146C139.896 70.6665 138.077 70.4592 136.296 70.1945C136.111 70.1711 135.937 70.1334 135.78 70.0829C135.284 69.9045 135.411 69.552 135.566 69.2709C136.539 67.58 136.626 65.8221 137.511 64.1401C138.396 62.458 141.964 63.3905 144.745 63.8277Z" fill="url(#paint19_linear)"/>
<path d="M258.911 113.267H233.184V136.012H258.911V113.267Z" fill="url(#paint20_linear)"/>
</g>
<defs>
<linearGradient id="paint0_linear" x1="88.4391" y1="60.7006" x2="91.2721" y2="80.6649" gradientUnits="userSpaceOnUse">
<stop offset="0.01"/>
<stop offset="1" stop-opacity="0"/>
</linearGradient>
<linearGradient id="paint1_linear" x1="2503.14" y1="7020.16" x2="3236.88" y2="7078.58" gradientUnits="userSpaceOnUse">
<stop offset="0.01"/>
<stop offset="1" stop-opacity="0"/>
</linearGradient>
<linearGradient id="paint2_linear" x1="9364.34" y1="1864.69" x2="9344.17" y2="2846.27" gradientUnits="userSpaceOnUse">
<stop offset="0.01"/>
<stop offset="1" stop-opacity="0"/>
</linearGradient>
<linearGradient id="paint3_linear" x1="16388.4" y1="24435.5" x2="16311" y2="14135.1" gradientUnits="userSpaceOnUse">
<stop offset="0.01"/>
<stop offset="1" stop-opacity="0"/>
</linearGradient>
<linearGradient id="paint4_linear" x1="7225.21" y1="1791.12" x2="7274.99" y2="2355.73" gradientUnits="userSpaceOnUse">
<stop offset="0.01"/>
<stop offset="1" stop-opacity="0"/>
</linearGradient>
<linearGradient id="paint5_linear" x1="5551.8" y1="1793.82" x2="5553.9" y2="1653.07" gradientUnits="userSpaceOnUse">
<stop offset="0.01"/>
<stop offset="1" stop-opacity="0"/>
</linearGradient>
<linearGradient id="paint6_linear" x1="4935.93" y1="1587.46" x2="4937.57" y2="1476.31" gradientUnits="userSpaceOnUse">
<stop offset="0.01"/>
<stop offset="1" stop-opacity="0"/>
</linearGradient>
<linearGradient id="paint7_linear" x1="4868.13" y1="12822.3" x2="1153.99" y2="27761" gradientUnits="userSpaceOnUse">
<stop offset="0.01"/>
<stop offset="1" stop-opacity="0"/>
</linearGradient>
<linearGradient id="paint8_linear" x1="3548.49" y1="12417.5" x2="29.8115" y2="27388.7" gradientUnits="userSpaceOnUse">
<stop offset="0.01"/>
<stop offset="1" stop-opacity="0"/>
</linearGradient>
<linearGradient id="paint9_linear" x1="167.321" y1="105.669" x2="167.346" y2="102.483" gradientUnits="userSpaceOnUse">
<stop offset="0.02" stop-color="white" stop-opacity="0"/>
<stop offset="0.58" stop-color="white" stop-opacity="0.39"/>
<stop offset="0.68" stop-color="white" stop-opacity="0.68"/>
<stop offset="1" stop-color="white"/>
</linearGradient>
<linearGradient id="paint10_linear" x1="8084.53" y1="3495.19" x2="8117.89" y2="2762.02" gradientUnits="userSpaceOnUse">
<stop offset="0.02" stop-color="white" stop-opacity="0"/>
<stop offset="0.58" stop-color="white" stop-opacity="0.39"/>
<stop offset="0.68" stop-color="white" stop-opacity="0.68"/>
<stop offset="1" stop-color="white"/>
</linearGradient>
<linearGradient id="paint11_linear" x1="4401.42" y1="8659.22" x2="5246.07" y2="8659.22" gradientUnits="userSpaceOnUse">
<stop offset="0.02" stop-color="white" stop-opacity="0"/>
<stop offset="0.58" stop-color="white" stop-opacity="0.39"/>
<stop offset="0.68" stop-color="white" stop-opacity="0.68"/>
<stop offset="1" stop-color="white"/>
</linearGradient>
<linearGradient id="paint12_linear" x1="7642.74" y1="9303.77" x2="10293.2" y2="9303.77" gradientUnits="userSpaceOnUse">
<stop offset="0.02" stop-color="white" stop-opacity="0"/>
<stop offset="0.58" stop-color="white" stop-opacity="0.39"/>
<stop offset="0.68" stop-color="white" stop-opacity="0.68"/>
<stop offset="1" stop-color="white"/>
</linearGradient>
<linearGradient id="paint13_linear" x1="5736.39" y1="7323.82" x2="7698.11" y2="6531.64" gradientUnits="userSpaceOnUse">
<stop offset="0.01"/>
<stop offset="1" stop-opacity="0"/>
</linearGradient>
<linearGradient id="paint14_linear" x1="9003.92" y1="13695.9" x2="6751.37" y2="13752.3" gradientUnits="userSpaceOnUse">
<stop offset="0.02" stop-color="white" stop-opacity="0"/>
<stop offset="0.58" stop-color="white" stop-opacity="0.39"/>
<stop offset="0.68" stop-color="white" stop-opacity="0.68"/>
<stop offset="1" stop-color="white"/>
</linearGradient>
<linearGradient id="paint15_linear" x1="4470.85" y1="559.637" x2="4470.78" y2="541.812" gradientUnits="userSpaceOnUse">
<stop offset="0.01"/>
<stop offset="1" stop-opacity="0"/>
</linearGradient>
<linearGradient id="paint16_linear" x1="227.667" y1="135.728" x2="227.698" y2="135.728" gradientUnits="userSpaceOnUse">
<stop offset="0.02" stop-color="white" stop-opacity="0"/>
<stop offset="0.58" stop-color="white" stop-opacity="0.39"/>
<stop offset="0.68" stop-color="white" stop-opacity="0.68"/>
<stop offset="1" stop-color="white"/>
</linearGradient>
<linearGradient id="paint17_linear" x1="6668.49" y1="2925.28" x2="6485.53" y2="2593.6" gradientUnits="userSpaceOnUse">
<stop offset="0.02" stop-color="white" stop-opacity="0"/>
<stop offset="0.58" stop-color="white" stop-opacity="0.39"/>
<stop offset="0.68" stop-color="white" stop-opacity="0.68"/>
<stop offset="1" stop-color="white"/>
</linearGradient>
<linearGradient id="paint18_linear" x1="5415.05" y1="3126.83" x2="4153.53" y2="4276.55" gradientUnits="userSpaceOnUse">
<stop offset="0.01"/>
<stop offset="1" stop-opacity="0"/>
</linearGradient>
<linearGradient id="paint19_linear" x1="1740.6" y1="1298.43" x2="1909.47" y2="1230.45" gradientUnits="userSpaceOnUse">
<stop offset="0.02" stop-color="white" stop-opacity="0"/>
<stop offset="0.58" stop-color="white" stop-opacity="0.39"/>
<stop offset="0.68" stop-color="white" stop-opacity="0.68"/>
<stop offset="1" stop-color="white"/>
</linearGradient>
<linearGradient id="paint20_linear" x1="7414.82" y1="6443.74" x2="5860.33" y2="6513.84" gradientUnits="userSpaceOnUse">
<stop offset="0.02" stop-color="white" stop-opacity="0"/>
<stop offset="0.58" stop-color="white" stop-opacity="0.39"/>
<stop offset="0.68" stop-color="white" stop-opacity="0.68"/>
<stop offset="1" stop-color="white"/>
</linearGradient>
<clipPath id="clip0">
<rect width="400" height="149" fill="white"/>
</clipPath>
</defs>
</svg>
