<?xml version="1.0" standalone="no"?>
<svg viewBox="0 0 200 200" xmlns="http://www.w3.org/2000/svg">
  <path fill="#FF5533" d="M19,-29.7C32.7,-25.1,57.4,-36.2,69.5,-33.9C81.6,-31.6,81,-15.8,71.3,-5.6C61.6,4.6,42.9,9.3,36.9,22.2C31,35.1,37.9,56.4,33.9,66.8C29.9,77.2,14.9,76.7,5,68.1C-5,59.5,-10,42.8,-12.1,31.3C-14.2,19.8,-13.2,13.4,-21.7,9.1C-30.2,4.7,-48.1,2.4,-54.4,-3.6C-60.7,-9.6,-55.4,-19.3,-49.3,-27.9C-43.3,-36.4,-36.5,-43.9,-28.1,-51.7C-19.8,-59.4,-9.9,-67.4,-3.6,-61.1C2.7,-54.9,5.4,-34.4,19,-29.7Z" transform="translate(100 100)" />
</svg>
