<?xml version="1.0" standalone="no"?>
<svg viewBox="0 0 200 200" xmlns="http://www.w3.org/2000/svg">
  <path fill="#FF5533" d="M36.7,-72.1C42.9,-59.9,40.2,-40.8,48.5,-27.6C56.8,-14.4,76.2,-7.2,75.9,-0.2C75.6,6.9,55.6,13.7,45.1,23C34.5,32.4,33.4,44.2,27.5,55.4C21.6,66.7,10.8,77.3,-2.1,81C-15.1,84.8,-30.1,81.5,-41.3,73.3C-52.4,65.1,-59.6,51.8,-64.5,38.7C-69.4,25.7,-72.1,12.8,-72.7,-0.4C-73.4,-13.6,-72,-27.2,-64.9,-36.4C-57.8,-45.6,-44.8,-50.5,-33.1,-59.4C-21.3,-68.4,-10.6,-81.6,2.3,-85.5C15.2,-89.5,30.4,-84.3,36.7,-72.1Z" transform="translate(100 100)" />
</svg>
