<?xml version="1.0" standalone="no"?>
<svg viewBox="0 0 200 200" xmlns="http://www.w3.org/2000/svg">
  <path fill="#FF5533" d="M28,-49.6C38.6,-42.4,51.1,-39.6,60.9,-32C70.8,-24.4,78.1,-12.2,79.4,0.7C80.7,13.7,76,27.4,68.9,39.8C61.8,52.2,52.3,63.2,40.4,70.6C28.6,78,14.3,81.8,-0.4,82.4C-15,83,-30,80.4,-35.3,69.3C-40.7,58.1,-36.4,38.3,-38.5,25.3C-40.6,12.4,-49.2,6.2,-51.2,-1.2C-53.3,-8.5,-48.8,-17.1,-47.2,-30.9C-45.5,-44.6,-46.6,-63.6,-39.2,-72.6C-31.8,-81.6,-15.9,-80.7,-3.6,-74.5C8.7,-68.3,17.4,-56.8,28,-49.6Z" transform="translate(100 100)" />
</svg>
