<svg width="60" height="60" viewBox="0 0 60 60" fill="none" xmlns="http://www.w3.org/2000/svg">
<path d="M33.2175 30.9362L55.0095 6.96198C55.4894 6.43394 55.6082 5.70058 55.3195 5.04808C55.0309 4.39558 54.4082 3.99022 53.6948 3.99022H46.8785L49.2543 1.4844C49.5886 1.1319 49.5737 0.575381 49.2213 0.241162C48.8689 -0.0928226 48.3124 -0.0781742 47.9781 0.274326L44.4549 3.99034H6.30524C5.59168 3.99034 4.96907 4.39569 4.68043 5.04819C4.3918 5.70081 4.51063 6.43417 4.99051 6.9621L26.7826 30.9362C27.0148 31.1917 27.2758 31.4153 27.5572 31.6062V52.7305C27.5572 53.8462 26.8491 54.8421 25.7953 55.2084L18.4937 57.7472C18.4759 57.7534 18.4583 57.7601 18.4411 57.7673C17.9253 57.9847 17.6425 58.5197 17.7533 59.0682C17.8641 59.6168 18.3324 60 18.8921 60H41.1077C41.6674 60 42.1358 59.6169 42.2466 59.0682C42.3575 58.5197 42.0746 57.9846 41.5589 57.7673C41.5416 57.7601 41.524 57.7533 41.5063 57.7472L34.2047 55.2084C33.1509 54.842 32.4427 53.8462 32.4427 52.7305V31.6063C32.7242 31.4153 32.9852 31.1917 33.2175 30.9362ZM45.211 5.74909H53.6948C53.7004 5.74909 53.7037 5.74921 53.7047 5.74933C53.7096 5.75425 53.715 5.76644 53.7153 5.76948C53.7153 5.76948 53.7137 5.77276 53.7081 5.77897L48.2957 11.7333H43.9699C44.3653 10.4666 44.1134 8.99929 43.2487 7.81886L45.211 5.74909ZM33.627 56.8697L37.5716 58.2411H22.4284L26.3729 56.8697C28.1333 56.2576 29.3161 54.5943 29.3161 52.7305V32.3051C29.3548 32.3113 29.394 32.3156 29.433 32.3208C29.4536 32.3235 29.4743 32.3265 29.4949 32.329C29.5415 32.3345 29.5883 32.3388 29.635 32.3427C29.6491 32.3439 29.6632 32.345 29.6772 32.3461C29.7843 32.3541 29.8919 32.3596 30.0001 32.3596C30.1084 32.3596 30.2161 32.3541 30.3234 32.346C30.337 32.3449 30.3507 32.3439 30.3643 32.3427C30.4115 32.3387 30.4586 32.3344 30.5056 32.3289C30.5253 32.3266 30.5449 32.3236 30.5646 32.321C30.6044 32.3157 30.6444 32.3113 30.684 32.305V52.7303C30.6839 54.5943 31.8666 56.2576 33.627 56.8697ZM31.916 29.7531C31.7034 29.987 31.457 30.1755 31.1868 30.3152C31.1803 30.3183 31.1735 30.3204 31.167 30.3237C30.4363 30.6925 29.5636 30.6926 28.8328 30.3237C28.8264 30.3205 28.8197 30.3184 28.8132 30.3153C28.5431 30.1757 28.2966 29.9871 28.0839 29.7532L13.303 13.492H16.5639C17.0496 13.492 17.4433 13.0983 17.4433 12.6126C17.4433 12.127 17.0496 11.7333 16.5639 11.7333H11.7042L6.29188 5.77897C6.28801 5.77476 6.28602 5.77194 6.28543 5.77147C6.28567 5.76456 6.29118 5.75249 6.29305 5.75015C6.29305 5.75015 6.29657 5.74909 6.30512 5.74909H42.7873L41.973 6.60796C41.2547 6.13675 40.4332 5.86944 39.5924 5.84249C38.4282 5.80522 37.3645 6.22827 36.6004 7.0344C35.8363 7.84042 35.47 8.92405 35.5694 10.0856C35.5824 10.237 35.6038 10.3873 35.6321 10.536C34.3634 10.3649 33.0827 10.7448 32.1903 11.6859C32.1757 11.7014 32.1623 11.7176 32.1479 11.7333H20.656C20.1704 11.7333 19.7766 12.127 19.7766 12.6126C19.7766 13.0983 20.1704 13.492 20.656 13.492H31.2411C31.1216 14.0401 31.1176 14.6162 31.2253 15.1841C31.0752 15.1638 30.924 15.1505 30.7721 15.1455C29.607 15.1078 28.5444 15.5313 27.7802 16.3375C26.4193 17.7729 26.4079 20.0408 27.6411 21.7244L26.6689 22.7498C26.3348 23.1023 26.3496 23.6589 26.7021 23.9931C26.8721 24.1543 27.0897 24.2342 27.307 24.2342C27.5398 24.2342 27.7725 24.1423 27.9453 23.9599L28.9168 22.9352C29.6352 23.4064 30.4565 23.6737 31.2976 23.7007C31.3452 23.7022 31.3924 23.703 31.4396 23.703C32.5489 23.703 33.5566 23.282 34.2896 22.5089C35.0538 21.7029 35.42 20.6192 35.3206 19.4577C35.3076 19.3064 35.2863 19.1563 35.2581 19.0076C35.4543 19.0341 35.651 19.0481 35.8463 19.0481C36.9138 19.0481 37.9456 18.6528 38.6999 17.8573C39.5922 16.916 39.9034 15.6169 39.6649 14.3591C39.815 14.3794 39.9662 14.3927 40.1179 14.3976C40.1655 14.3992 40.2127 14.4 40.26 14.4C41.2235 14.4 42.11 14.0819 42.8067 13.4919H46.6973L31.916 29.7531ZM33.4665 12.896C33.8771 12.463 34.4443 12.2497 35.0434 12.2497C35.7315 12.2497 36.4618 12.5311 37.0449 13.084C38.1357 14.1184 38.3054 15.7168 37.4232 16.6473C36.5409 17.5775 34.9361 17.4934 33.8452 16.4597C33.8451 16.4596 33.8449 16.4593 33.8448 16.4592C32.754 15.4249 32.5843 13.8265 33.4665 12.896ZM33.013 21.2989C32.5992 21.7353 32.0121 21.9629 31.3538 21.943C30.6587 21.9207 29.9771 21.6252 29.4347 21.1108C28.3438 20.0766 28.1741 18.4781 29.0564 17.5476C29.4527 17.1296 30.0098 16.9022 30.6325 16.9022C30.6602 16.9022 30.6879 16.9026 30.7155 16.9035C31.4104 16.9257 32.0919 17.2212 32.6342 17.7351C32.6343 17.7353 32.6346 17.7355 32.6347 17.7356C33.177 18.25 33.5084 18.9148 33.5677 19.6078C33.6238 20.2618 33.4268 20.8624 33.013 21.2989ZM37.3218 9.93562C37.2658 9.28159 37.4628 8.68101 37.8766 8.24448C38.2729 7.82659 38.8299 7.59901 39.4528 7.59901C39.4802 7.59901 39.508 7.59948 39.5357 7.6003C40.2309 7.62269 40.9125 7.91812 41.4548 8.43245C42.5456 9.46663 42.7153 11.0652 41.8331 11.9957C41.4193 12.4321 40.8287 12.6596 40.1739 12.6397C39.4789 12.6176 38.7973 12.322 38.255 11.8077C37.7125 11.2935 37.3813 10.6285 37.3218 9.93562Z" fill="black"/>
</svg>
