<svg width="60" height="60" viewBox="0 0 60 60" fill="none" xmlns="http://www.w3.org/2000/svg">
<g id="heart 1">
<g id="Group">
<g id="Group_2">
<path id="Vector" d="M55.6223 8.70345C52.663 5.34556 48.5576 3.49634 44.0625 3.49634C37.7405 3.49634 33.7379 7.27212 31.4936 10.4397C30.9112 11.2617 30.4159 12.0858 30 12.8614C29.5841 12.0858 29.0889 11.2617 28.5064 10.4397C26.2621 7.27212 22.2595 3.49634 15.9375 3.49634C11.4424 3.49634 7.33699 5.34567 4.37754 8.70357C1.55473 11.9068 0 16.1968 0 20.7833C0 25.7758 1.94918 30.4193 6.13418 35.3965C9.87445 39.845 15.2554 44.4303 21.4863 49.7399C23.8082 51.7185 26.2092 53.7646 28.7654 56.0011L28.8422 56.0684C29.1736 56.3586 29.5868 56.5035 30 56.5035C30.4132 56.5035 30.8264 56.3584 31.1578 56.0684L31.2346 56.0011C33.7908 53.7646 36.1918 51.7186 38.514 49.7397C44.7447 44.4304 50.1255 39.8451 53.8658 35.3965C58.0508 30.4192 60 25.7758 60 20.7833C60 16.1968 58.4453 11.9068 55.6223 8.70345ZM36.2336 47.0641C34.232 48.7696 32.1721 50.525 30 52.4132C27.828 50.5252 25.768 48.7697 23.7661 47.0638C11.5717 36.6725 3.51562 29.8075 3.51562 20.7833C3.51562 17.0532 4.7584 13.5886 7.01508 11.028C9.29766 8.43825 12.4663 7.01196 15.9375 7.01196C20.7573 7.01196 23.873 9.98126 25.6378 12.4722C27.2209 14.7063 28.047 16.9584 28.3287 17.8229C28.5643 18.5465 29.239 19.0362 30 19.0362C30.761 19.0362 31.4357 18.5465 31.6713 17.8229C31.953 16.9584 32.7791 14.7063 34.3622 12.4721C36.127 9.98126 39.2427 7.01196 44.0625 7.01196C47.5337 7.01196 50.7023 8.43825 52.9848 11.028C55.2416 13.5886 56.4844 17.0532 56.4844 20.7833C56.4844 29.8075 48.4283 36.6725 36.2336 47.0641Z" fill="#FF5533"/>
</g>
</g>
</g>
</svg>
