<svg width="63" height="54" viewBox="0 0 63 54" fill="none" xmlns="http://www.w3.org/2000/svg">
<g id="Vector">
<path d="M58.4035 5.30464C55.2962 1.88385 50.9855 0 46.2656 0C39.6275 0 35.4248 3.8465 33.0682 7.07341C32.4568 7.91076 31.9367 8.75037 31.5 9.54044C31.0633 8.75037 30.5433 7.91076 29.9318 7.07341C27.5752 3.8465 23.3725 0 16.7344 0C12.0145 0 7.70384 1.88397 4.59642 5.30476C1.63246 8.56796 0 12.9383 0 17.6107C0 22.6967 2.04664 27.4273 6.44089 32.4977C10.3682 37.0294 16.0181 41.7006 22.5606 47.1097C24.9986 49.1254 27.5197 51.2098 30.2037 53.4882L30.2843 53.5567C30.6323 53.8523 31.0661 54 31.5 54C31.9339 54 32.3677 53.8522 32.7157 53.5567L32.7963 53.4882C35.4803 51.2098 38.0014 49.1255 40.4397 47.1095C46.9819 41.7008 52.6318 37.0296 56.5591 32.4977C60.9534 27.4271 63 22.6967 63 17.6107C63 12.9383 61.3675 8.56795 58.4035 5.30464ZM38.0452 44.3838C35.9436 46.1212 33.7807 47.9095 31.5 49.8331C29.2194 47.9097 27.0564 46.1214 24.9544 44.3835C12.1503 33.7975 3.69141 26.804 3.69141 17.6107C3.69141 13.8108 4.99632 10.2813 7.36583 7.67271C9.76254 5.03448 13.0896 3.58147 16.7344 3.58147C21.7952 3.58147 25.0666 6.60638 26.9197 9.14398C28.5819 11.4199 29.4493 13.7142 29.7451 14.5949C29.9926 15.332 30.7009 15.8309 31.5 15.8309C32.2991 15.8309 33.0074 15.332 33.2549 14.5949C33.5507 13.7142 34.4181 11.4199 36.0803 9.14386C37.9334 6.60638 41.2048 3.58147 46.2656 3.58147C49.9104 3.58147 53.2375 5.03448 55.634 7.67271C58.0037 10.2813 59.3086 13.8108 59.3086 17.6107C59.3086 26.804 50.8497 33.7975 38.0452 44.3838Z" fill="#FF5533"/>
<path d="M38.0452 44.3838C35.9436 46.1212 33.7807 47.9095 31.5 49.8331C29.2194 47.9097 27.0564 46.1214 24.9544 44.3835C12.1503 33.7975 3.69141 26.804 3.69141 17.6107C3.69141 13.8108 4.99632 10.2813 7.36583 7.67271C9.76254 5.03448 13.0896 3.58147 16.7344 3.58147C21.7952 3.58147 25.0666 6.60638 26.9197 9.14398C28.5819 11.4199 29.4493 13.7142 29.7451 14.5949C29.9926 15.332 30.7009 15.8309 31.5 15.8309C32.2991 15.8309 33.0074 15.332 33.2549 14.5949C33.5507 13.7142 34.4181 11.4199 36.0803 9.14386C37.9334 6.60638 41.2048 3.58147 46.2656 3.58147C49.9104 3.58147 53.2375 5.03448 55.634 7.67271C58.0037 10.2813 59.3086 13.8108 59.3086 17.6107C59.3086 26.804 50.8497 33.7975 38.0452 44.3838Z" fill="#FF5533"/>
</g>
</svg>
