<svg width="37" height="33" viewBox="0 0 37 33" fill="none" xmlns="http://www.w3.org/2000/svg">
<g clip-path="url(#clip0)">
<path d="M24.5325 17.5761H1.20652C0.540519 17.5761 0 17.094 0 16.5C0 15.906 0.540519 15.4239 1.20652 15.4239H24.5325C25.1985 15.4239 25.739 15.906 25.739 16.5C25.739 17.094 25.1985 17.5761 24.5325 17.5761Z" fill="black"/>
<path d="M18.0978 23.3151C17.7888 23.3151 17.4801 23.2106 17.2451 22.9996C16.7738 22.5793 16.7738 21.8978 17.2451 21.4772L22.8273 16.4987L17.2451 11.5199C16.7738 11.0996 16.7738 10.4178 17.2451 9.9975C17.7167 9.57716 18.4808 9.57716 18.9521 9.9975L25.3867 15.7368C25.858 16.1572 25.858 16.8386 25.3867 17.259L18.9521 22.998C18.7155 23.2106 18.4068 23.3151 18.0978 23.3151Z" fill="black"/>
<path d="M19.3043 32.2827C11.983 32.2827 5.51948 28.3543 2.83456 22.2735C2.59007 21.7225 2.89553 21.097 3.51499 20.879C4.13269 20.6638 4.8358 20.932 5.08029 21.4874C7.39848 26.7373 12.9822 30.1305 19.3043 30.1305C27.7305 30.1305 34.587 24.0153 34.587 16.5C34.587 8.98472 27.7305 2.86947 19.3043 2.86947C12.9822 2.86947 7.39848 6.26272 5.08029 11.5126C4.83404 12.068 4.13269 12.3362 3.51499 12.121C2.89553 11.903 2.59007 11.2774 2.83456 10.7265C5.51948 4.6457 11.983 0.717297 19.3043 0.717297C29.0611 0.717297 37.0001 7.79803 37.0001 16.5C37.0001 25.202 29.0611 32.2827 19.3043 32.2827Z" fill="black"/>
</g>
<defs>
<clipPath id="clip0">
<rect width="37" height="33" fill="white"/>
</clipPath>
</defs>
</svg>
