<svg width="37" height="33" viewBox="0 0 37 33" fill="none" xmlns="http://www.w3.org/2000/svg">
<g clip-path="url(#clip0)">
<path d="M15.8022 15.4688H1.15625C0.517998 15.4688 0 15.0068 0 14.4375C0 13.8682 0.517998 13.4062 1.15625 13.4062H15.8022C16.4404 13.4062 16.9584 13.8682 16.9584 14.4375C16.9584 15.0068 16.4404 15.4688 15.8022 15.4688Z" fill="black"/>
<path d="M10.0209 20.625C9.72481 20.625 9.42897 20.5245 9.2037 20.3226C8.75204 19.9195 8.75204 19.2664 9.2037 18.8636L14.168 14.4362L9.2037 10.0101C8.75204 9.60704 8.75204 8.95395 9.2037 8.55112C9.65536 8.14828 10.3876 8.14828 10.8396 8.55112L16.6208 13.7074C17.0725 14.1102 17.0725 14.7633 16.6208 15.1664L10.8396 20.3226C10.6129 20.5245 10.3168 20.625 10.0209 20.625Z" fill="black"/>
<path d="M24.6666 33C22.9661 33 21.5834 31.7666 21.5834 30.2499V5.49991C21.5834 4.3244 22.4221 3.27527 23.6707 2.88881L32.9331 0.134696C35.0051 -0.431786 37 0.939101 37 2.75008V27.5001C37 28.6743 36.1613 29.7219 34.9142 30.1097L25.6487 32.8653C25.311 32.9587 24.9983 33 24.6666 33ZM33.9166 2.0625C33.8164 2.0625 33.7317 2.07358 33.6408 2.09825L24.417 4.84128C24.1147 4.93494 23.8959 5.20711 23.8959 5.49991V30.2499C23.8959 30.719 24.4662 31.0352 24.9427 30.9017L34.1664 28.1587C34.467 28.065 34.6875 27.7929 34.6875 27.5001V2.75008C34.6875 2.37192 34.3423 2.0625 33.9166 2.0625Z" fill="black"/>
<path d="M13.4897 6.87508C12.8514 6.87508 12.3334 6.41309 12.3334 5.84383V3.78133C12.3334 1.69542 14.2341 0 16.5728 0H33.9166C34.5548 0 35.0728 0.461998 35.0728 1.03125C35.0728 1.6005 34.5548 2.0625 33.9166 2.0625H16.5728C15.5106 2.0625 14.6459 2.83392 14.6459 3.78133V5.84383C14.6459 6.41309 14.1279 6.87508 13.4897 6.87508Z" fill="black"/>
<path d="M22.7397 28.875H16.5728C14.2341 28.875 12.3334 27.1796 12.3334 25.0937V23.0312C12.3334 22.4619 12.8514 21.9999 13.4897 21.9999C14.1279 21.9999 14.6459 22.4619 14.6459 23.0312V25.0937C14.6459 26.0411 15.5106 26.8125 16.5728 26.8125H22.7397C23.3779 26.8125 23.8959 27.2745 23.8959 27.8437C23.8959 28.413 23.3779 28.875 22.7397 28.875Z" fill="black"/>
</g>
<defs>
<clipPath id="clip0">
<rect width="37" height="33" fill="white"/>
</clipPath>
</defs>
</svg>
