<svg width="60" height="60" viewBox="0 0 60 60" fill="none" xmlns="http://www.w3.org/2000/svg">
<path d="M56.2532 28.262H24.3581C23.3974 28.262 22.6113 29.048 22.6113 30.0087C22.6113 30.9694 23.3974 31.7554 24.3581 31.7554H56.2532C57.2139 31.7554 58 30.9694 58 30.0087C58 29.048 57.2314 28.262 56.2532 28.262Z" fill="black"/>
<path d="M10.1223 21.8865C5.63319 21.8865 2 25.5197 2 30.0087C2 34.4978 5.63319 38.131 10.1223 38.131C14.6114 38.131 18.2445 34.4978 18.2445 30.0087C18.2445 25.5197 14.6114 21.8865 10.1223 21.8865ZM10.1223 34.6376C7.55458 34.6376 5.49345 32.559 5.49345 30.0087C5.49345 27.4411 7.57205 25.3799 10.1223 25.3799C12.6725 25.3799 14.7511 27.4585 14.7511 30.0087C14.7511 32.559 12.6725 34.6376 10.1223 34.6376Z" fill="black"/>
<path d="M56.2532 6.42786H24.3581C23.3974 6.42786 22.6113 7.21388 22.6113 8.17458C22.6113 9.13528 23.3974 9.92131 24.3581 9.92131H56.2532C57.2139 9.92131 58 9.13528 58 8.17458C58 7.21388 57.2314 6.42786 56.2532 6.42786Z" fill="black"/>
<path d="M10.1223 0C5.63319 0 2 3.63319 2 8.12227C2 12.6114 5.63319 16.2445 10.1223 16.2445C14.6114 16.2445 18.2445 12.6114 18.2445 8.12227C18.2445 3.65065 14.6114 0.0174672 10.1223 0ZM10.1223 12.7686C7.55458 12.7686 5.49345 10.69 5.49345 8.13974C5.49345 5.58952 7.57205 3.51092 10.1223 3.51092C12.69 3.51092 14.7511 5.58952 14.7511 8.13974C14.7511 10.69 12.6725 12.7686 10.1223 12.7686Z" fill="black"/>
<path d="M56.2532 50.0961H24.3581C23.3974 50.0961 22.6113 50.8821 22.6113 51.8428C22.6113 52.8035 23.3974 53.5895 24.3581 53.5895H56.2532C57.2139 53.5895 58 52.8035 58 51.8428C58 50.8821 57.2314 50.0961 56.2532 50.0961Z" fill="black"/>
<path d="M10.1223 43.7555C5.63319 43.7555 2 47.3887 2 51.8778C2 56.3668 5.63319 60 10.1223 60C14.6114 60 18.2445 56.3668 18.2445 51.8778C18.2445 47.4061 14.6114 43.7555 10.1223 43.7555ZM10.1223 56.5241C7.55458 56.5241 5.49345 54.4455 5.49345 51.8952C5.49345 49.3275 7.57205 47.2664 10.1223 47.2664C12.69 47.2664 14.7511 49.345 14.7511 51.8952C14.7511 54.4455 12.6725 56.5241 10.1223 56.5241Z" fill="black"/>
</svg>
