<svg width="60" height="60" viewBox="0 0 60 60" fill="none" xmlns="http://www.w3.org/2000/svg">
<path d="M30 30.0773C14.1883 30.0773 1.3241 42.9416 1.3241 58.7531C1.3241 59.4414 1.88269 59.9999 2.57091 59.9999C3.25914 59.9999 3.81773 59.4414 3.81773 58.7531C3.81773 44.3154 15.5624 32.5708 30.0001 32.5708C44.4378 32.5708 56.1824 44.3154 56.1824 58.7531C56.1824 59.4414 56.741 59.9999 57.4292 59.9999C58.1175 59.9999 58.6761 59.4414 58.6761 58.7531C58.6759 42.939 45.8116 30.0773 30 30.0773Z" fill="black"/>
<path d="M29.9999 0C22.4394 0 16.2854 6.15157 16.2854 13.7145C16.2854 21.2775 22.4395 27.429 29.9999 27.429C37.5603 27.429 43.7144 21.2775 43.7144 13.7145C43.7144 6.15157 37.5604 0 29.9999 0ZM29.9999 24.9355C23.8134 24.9355 18.7789 19.901 18.7789 13.7145C18.7789 7.52801 23.8134 2.49352 29.9999 2.49352C36.1864 2.49352 41.2209 7.52801 41.2209 13.7145C41.2209 19.901 36.1864 24.9355 29.9999 24.9355Z" fill="black"/>
</svg>
