<svg width="269" height="231" viewBox="0 0 269 231" fill="none" xmlns="http://www.w3.org/2000/svg">
<g clip-path="url(#clip11)">
<path opacity="0.1" d="M267.315 159.125C264.616 168.001 258.969 176.017 252.907 183.609C247.578 190.285 241.878 196.735 235.807 202.961C234.125 204.689 232.415 206.396 230.679 208.081L229.473 209.244C228.403 210.279 227.316 211.304 226.21 212.319L226.077 212.442C225.004 213.44 223.922 214.429 222.831 215.407C219.259 218.615 215.484 221.801 211.311 224.438C209.889 225.339 208.423 226.178 206.904 226.93C206.082 227.338 205.243 227.721 204.387 228.077C202.984 228.66 201.543 229.169 200.038 229.587C199.787 229.658 199.534 229.726 199.28 229.791C197.74 230.187 196.181 230.475 194.605 230.673C188.83 231.395 182.865 230.867 177.08 229.629C174.189 229.01 171.343 228.213 168.59 227.306C168.251 227.196 167.914 227.082 167.576 226.982C158.198 223.774 149.395 219.419 139.952 216.357C136.697 215.3 133.38 214.404 129.999 213.667C128.349 213.309 126.691 212.985 125.022 212.695C121.096 212.028 117.119 211.58 113.126 211.354C107.742 211.03 102.183 211.169 97.0594 212.455C96.377 212.626 95.7032 212.818 95.0381 213.032C94.1944 213.302 93.3666 213.61 92.5546 213.956C90.3655 214.923 88.235 216.122 86.1824 217.543C85.7772 217.815 85.3767 218.09 84.9762 218.369C83.7202 219.244 82.4809 220.138 81.2225 221.007C78.9579 222.627 76.601 223.995 74.1749 225.096C72.8461 225.67 71.4949 226.142 70.1275 226.509C66.5089 227.5 62.6581 227.892 58.7907 227.918C56.9257 227.918 55.0583 227.863 53.2123 227.73H53.1554C52.5251 227.685 51.8924 227.633 51.2597 227.568C48.3781 227.299 45.506 226.885 42.6765 226.318C32.9819 224.373 23.7874 220.699 16.3914 215.093C6.34615 207.485 -0.0331618 196.14 0.924209 184.805C1.61143 176.639 5.87932 169.057 9.92919 161.633C17.4626 147.81 24.5196 133.672 28.233 118.77C31.2449 106.673 32.143 93.8834 39.0745 83.0119C41.2949 79.5318 44.1339 76.3562 47.4397 73.5727C49.9106 71.5041 52.5006 69.7138 55.1839 68.2196C58.2167 66.5211 61.3365 65.1294 64.5183 64.0557C67.2759 63.1203 70.0704 62.4019 72.8882 61.9041C74.419 61.6319 75.9688 61.4213 77.5281 61.2787C78.7288 61.1643 79.935 61.0919 81.1467 61.0616H81.3339C82.0749 61.0422 82.8158 61.0422 83.5567 61.0616C88.9594 61.176 94.3472 61.8683 99.6709 63.1322C103.003 63.8937 106.306 64.827 109.541 65.8542C111.471 66.4655 113.385 67.106 115.28 67.7757C115.859 67.9798 116.437 68.1872 117.008 68.3979C130.496 73.3394 142.364 80.1637 155.36 85.763C155.426 85.7922 155.49 85.8214 155.556 85.844C158.224 86.9657 160.932 87.8958 163.67 88.6308C165.682 89.1816 167.739 89.658 169.831 90.076C173.035 90.7241 176.308 91.236 179.604 91.6767L180.332 91.7739C185.168 92.422 190.048 92.9048 194.787 93.4687C196.47 93.6696 198.138 93.8769 199.783 94.1167C200.825 94.2593 201.858 94.4105 202.882 94.5704C203.617 94.687 204.354 94.8037 205.091 94.9268C205.828 95.05 206.607 95.1796 207.366 95.3124C207.859 95.3967 208.349 95.4842 208.842 95.5781C211.828 96.1193 214.807 96.7252 217.752 97.4187C219.544 97.8399 221.326 98.2936 223.086 98.7829C224.361 99.1371 225.625 99.5109 226.878 99.904C227.807 100.191 228.728 100.494 229.641 100.811C237.061 103.362 244.004 106.706 249.988 111.219C265.526 122.914 272.479 142.152 267.315 159.125Z" fill="#FF5533"/>
<path opacity="0.1" d="M59.0039 29.293C61.8348 29.293 64.1297 26.155 64.1297 22.2841C64.1297 18.4132 61.8348 15.2751 59.0039 15.2751C56.1731 15.2751 53.8782 18.4132 53.8782 22.2841C53.8782 26.155 56.1731 29.293 59.0039 29.293Z" fill="#FF5533"/>
<path opacity="0.1" d="M163.772 14.0179C166.603 14.0179 168.898 10.8799 168.898 7.00893C168.898 3.13801 166.603 0 163.772 0C160.941 0 158.646 3.13801 158.646 7.00893C158.646 10.8799 160.941 14.0179 163.772 14.0179Z" fill="#FF5533"/>
<path opacity="0.1" d="M225.895 29.7143C228.725 29.7143 231.02 26.5763 231.02 22.7053C231.02 18.8344 228.725 15.6964 225.895 15.6964C223.064 15.6964 220.769 18.8344 220.769 22.7053C220.769 26.5763 223.064 29.7143 225.895 29.7143Z" fill="#FF5533"/>
<path opacity="0.1" d="M8.59027 50.9874C13.3346 50.9874 17.1805 45.7283 17.1805 39.241C17.1805 32.7537 13.3346 27.4946 8.59027 27.4946C3.846 27.4946 0 32.7537 0 39.241C0 45.7283 3.846 50.9874 8.59027 50.9874Z" fill="#FF5533"/>
<path opacity="0.1" d="M16.8251 108.99C21.5694 108.99 25.4153 103.731 25.4153 97.2437C25.4153 90.7564 21.5694 85.4974 16.8251 85.4974C12.0808 85.4974 8.2348 90.7564 8.2348 97.2437C8.2348 103.731 12.0808 108.99 16.8251 108.99Z" fill="#FF5533"/>
<path opacity="0.1" d="M247.381 87.6392C252.125 87.6392 255.971 82.3802 255.971 75.8928C255.971 69.4055 252.125 64.1465 247.381 64.1465C242.637 64.1465 238.791 69.4055 238.791 75.8928C238.791 82.3802 242.637 87.6392 247.381 87.6392Z" fill="#FF5533"/>
<path d="M83.9714 77.5584C84.014 78.5447 83.9718 79.5344 83.8458 80.5072C83.3719 83.5175 81.3671 85.5848 79.4263 87.1532C77.4855 88.7215 75.3527 90.2056 74.1986 92.853C72.8076 96.0513 73.2508 100.351 74.8835 103.339C76.5162 106.327 79.104 108.105 81.7676 108.848C86.6255 110.218 91.9455 108.293 95.5878 103.692C99.2301 99.0907 101.057 91.9003 100.164 85.2219C98.1874 85.6011 96.4267 83.2161 95.7869 80.6303C95.147 78.0445 95.2798 75.2416 95.0309 72.5294C95.0128 72.0708 94.9118 71.6255 94.7371 71.2332C94.4598 70.7083 93.9693 70.4944 93.5119 70.3227C91.2275 69.464 87.3838 67.5846 85.0165 68.3039C82.8837 68.9714 83.9359 75.1087 83.9714 77.5584Z" fill="#BE6F72"/>
<path opacity="0.1" d="M83.9714 77.5584C84.014 78.5447 83.9718 79.5344 83.8458 80.5072C83.3719 83.5175 81.3671 85.5848 79.4263 87.1532C77.4855 88.7215 75.3527 90.2056 74.1986 92.853C72.8076 96.0513 73.2508 100.351 74.8835 103.339C76.5162 106.327 79.104 108.105 81.7676 108.848C86.6255 110.218 91.9455 108.293 95.5878 103.692C99.2301 99.0907 101.057 91.9003 100.164 85.2219C98.1874 85.6011 96.4267 83.2161 95.7869 80.6303C95.147 78.0445 95.2798 75.2416 95.0309 72.5294C95.0128 72.0708 94.9118 71.6255 94.7371 71.2332C94.4598 70.7083 93.9693 70.4944 93.5119 70.3227C91.2275 69.464 87.3838 67.5846 85.0165 68.3039C82.8837 68.9714 83.9359 75.1087 83.9714 77.5584Z" fill="black"/>
<path d="M81.2107 221.013C78.946 222.634 76.5891 224.002 74.1631 225.102C72.8343 225.676 71.483 226.148 70.1156 226.515C70.0188 224.024 70.1181 221.525 70.4118 219.062C70.5966 217.646 70.8692 216.243 70.9403 214.808C71.0409 212.736 70.7167 210.666 70.0042 208.833C72.6441 208.34 75.1513 207.536 77.803 207.773L77.9713 207.789C78.2866 207.8 78.5986 207.88 78.8954 208.026C79.3034 208.296 79.65 208.712 79.8978 209.231C80.0344 209.486 80.1602 209.751 80.2746 210.025C81.0235 211.794 81.3078 213.836 81.3671 215.939C81.3949 217.633 81.3427 219.328 81.2107 221.013Z" fill="#BE6F72"/>
<path d="M95.0286 213.035C94.1849 213.305 93.3571 213.613 92.5451 213.959C90.356 214.926 88.2255 216.125 86.1729 217.546C86.0395 216.663 85.9744 215.764 85.9786 214.863C87.1881 213.722 88.553 212.926 89.9921 212.521C91.4312 212.117 92.9151 212.112 94.3556 212.507C94.5481 212.539 94.7312 212.64 94.8864 212.799C94.9426 212.867 94.9906 212.947 95.0286 213.035Z" fill="#BE6F72"/>
<path d="M99.1021 196.678C98.941 198.797 98.704 200.923 98.1543 202.916C97.5595 205.054 96.5926 207.128 96.7158 209.413C96.7703 210.404 97.0168 211.48 97.0523 212.462C96.3699 212.632 95.6961 212.825 95.031 213.039C94.1873 213.309 93.3595 213.616 92.5475 213.962C90.3584 214.929 88.2279 216.129 86.1753 217.549C85.77 217.821 85.3696 218.097 84.9691 218.376C84.8032 218.346 84.6397 218.311 84.4738 218.269C83.2889 217.974 82.0425 217.248 81.3718 215.952C81.2183 215.653 81.0978 215.326 81.014 214.98C80.6277 213.402 81.0306 211.435 80.2272 210.184L80.1893 210.229L80.1609 210.255C79.7208 210.8 79.2376 211.276 78.7201 211.674C77.5422 212.586 76.2373 213.149 74.8901 213.326C73.5429 213.504 72.1835 213.292 70.9 212.705C70.3915 212.468 69.9003 212.167 69.4331 211.804C68.3478 210.958 67.3004 209.536 67.3857 207.838C67.4331 206.892 67.8288 205.984 67.7222 205.048C67.644 204.377 67.3217 203.82 67.08 203.227C65.4946 199.338 67.3857 194.338 66.3904 190.113C66.3667 190.013 66.3406 189.912 66.3146 189.815C66.2411 189.539 66.1582 189.274 66.0776 189.008C65.8738 188.389 65.6463 187.78 65.4662 187.145C65.3162 186.611 65.1974 186.061 65.1107 185.502C64.887 183.877 64.8075 182.221 64.8738 180.57C64.8738 176.218 65.4425 171.763 66.2529 167.57C66.3975 166.824 66.5586 165.771 66.7719 164.624C66.9798 163.415 67.2604 162.232 67.6108 161.086C68.0847 159.595 68.7293 158.406 69.6109 158.124C70.9379 157.699 72.9664 158.597 74.3124 158.817L79.6324 159.686L90.2702 161.426C92.1067 161.727 94.0357 162.074 95.5499 163.487C95.6495 163.581 95.7466 163.678 95.8438 163.782C96.2438 164.213 96.6021 164.711 96.9101 165.266C97.0192 165.457 97.1234 165.658 97.223 165.862C97.5681 166.584 97.8617 167.35 98.0998 168.15C99.4197 172.485 99.4505 177.323 99.46 182.018C99.46 186.918 99.4718 191.814 99.1021 196.678Z" fill="#3F3D56"/>
<path opacity="0.1" d="M78.7082 211.694C78.3883 210.009 77.7129 207.569 77.6134 206.905C77.2795 204.676 77.0375 202.424 76.8883 200.158C76.6252 196.121 76.1513 190.437 77.194 186.597C78.1727 187.31 79.0329 189.329 79.4855 190.706C81.1254 195.699 79.2793 201.83 80.8197 206.882C80.9348 207.184 81.0064 207.514 81.0306 207.854C81.0038 208.285 80.8907 208.698 80.7035 209.046L80.1846 210.226L78.7082 211.694Z" fill="black"/>
<path d="M112.837 57.5361C114.581 53.6477 116.97 49.824 116.821 45.2778C116.766 43.6576 116.377 42.073 116.081 40.4852C115.232 35.8899 115.176 31.0876 115.918 26.4577C118.848 25.8139 121.848 26.7325 124.297 29.024C125.072 29.7564 125.807 30.6669 126.148 31.8691C126.463 32.9773 126.411 34.2119 126.354 35.3979C126.224 38.123 126.046 41.0296 124.818 43.1748C124.437 43.8455 123.968 44.4126 123.596 45.0898C123.053 46.0619 122.735 47.2479 122.425 48.4047L118.396 63.3915C116.363 70.9448 114.159 78.8448 109.681 84.0716C109.572 84.1979 106.363 77.9667 106.098 77.3413C105.024 74.7782 105.493 73.6959 106.792 71.5507C109.354 67.3091 110.745 62.1925 112.837 57.5361Z" fill="#BE6F72"/>
<path d="M66.67 185.275C66.6563 186.394 66.5874 187.51 66.4638 188.616C66.4212 189.024 66.3714 189.429 66.3122 189.834C65.5041 195.602 63.4922 201.088 62.0846 206.707C60.2291 214.124 59.4139 220.559 58.767 227.925C56.902 227.925 55.0346 227.87 53.1886 227.737H53.1317C52.5014 227.692 51.8687 227.64 51.2359 227.575C51.8071 220.705 50.762 213.499 51.7834 206.623C52.1957 203.855 52.8995 201.169 53.3237 198.415C53.4544 197.604 53.5533 196.784 53.6199 195.959C53.6791 195.174 53.7099 194.361 53.9682 193.655C53.9919 193.586 54.0188 193.52 54.0488 193.457C54.2757 192.968 54.5572 192.531 54.883 192.161C57.7703 188.699 61.302 186.396 65.087 185.508C65.6249 185.408 66.1487 185.324 66.67 185.275Z" fill="#FBBEBE"/>
<path opacity="0.1" d="M66.67 185.275C66.6563 186.394 66.5874 187.51 66.4638 188.616C66.4212 189.024 66.3714 189.429 66.3122 189.834C65.5041 195.602 63.4922 201.088 62.0846 206.707C60.2291 214.124 59.4139 220.559 58.767 227.925C56.902 227.925 55.0346 227.87 53.1886 227.737H53.1317C52.5014 227.692 51.8687 227.64 51.2359 227.575C51.8071 220.705 50.762 213.499 51.7834 206.623C52.1957 203.855 52.8995 201.169 53.3237 198.415C53.4544 197.604 53.5533 196.784 53.6199 195.959C53.6791 195.174 53.7099 194.361 53.9682 193.655C53.9919 193.586 54.0188 193.52 54.0488 193.457C54.2757 192.968 54.5572 192.531 54.883 192.161C57.7703 188.699 61.302 186.396 65.087 185.508C65.6249 185.408 66.1487 185.324 66.67 185.275Z" fill="black"/>
<path d="M54.6555 200.041C54.6172 201.842 54.5088 203.639 54.3308 205.424C53.6981 212.718 53.5796 220.329 53.146 227.734C52.5156 227.688 51.8829 227.636 51.2502 227.572C48.3686 227.303 45.4965 226.888 42.667 226.321C42.885 224.653 43.1046 222.985 43.3258 221.318C43.5959 219.273 43.8661 217.209 43.7879 215.135C43.7144 213.175 43.3305 211.266 43.0248 209.345C42.3732 205.229 42.0082 200.79 40.9347 196.908C40.3749 194.731 39.4813 192.742 38.3138 191.075C42.7547 188.69 47.0226 188.554 51.7928 188.807C52.1315 188.781 52.4681 188.894 52.7597 189.131C52.9858 189.399 53.1538 189.746 53.2455 190.136C53.9623 192.493 54.4122 194.987 54.5796 197.53C54.6366 198.365 54.662 199.203 54.6555 200.041Z" fill="#FBBEBE"/>
<path d="M90.4266 75.8864C95.5307 75.8864 99.6685 70.2284 99.6685 63.2489C99.6685 56.2694 95.5307 50.6115 90.4266 50.6115C85.3224 50.6115 81.1846 56.2694 81.1846 63.2489C81.1846 70.2284 85.3224 75.8864 90.4266 75.8864Z" fill="#BE6F72"/>
<path d="M92.3484 92.785C93.5333 90.0209 94.5712 86.5699 96.8509 85.802C98.1376 85.3645 99.4765 85.9607 100.73 86.5472C101.093 86.6648 101.423 86.9263 101.678 87.299C101.863 87.7009 101.963 88.1655 101.965 88.6405C102.362 94.3532 102.348 100.105 101.924 105.815C101.624 109.855 101.116 113.877 101.026 117.937C100.901 123.565 101.579 129.194 101.356 134.816C101.187 139.077 100.505 143.264 99.8273 147.427L96.9836 164.861C96.9327 165.4 96.7745 165.91 96.5262 166.335C96.2864 166.636 95.9995 166.857 95.6873 166.983C91.5712 168.973 87.1957 169.76 82.8433 169.294C78.4909 168.828 74.2584 167.119 70.4189 164.277C69.3928 163.506 68.3691 162.615 67.7008 161.299C66.7529 159.433 66.6653 156.964 66.9733 154.728C67.2814 152.492 67.9473 150.383 68.3952 148.189C69.0871 144.787 69.2506 141.235 69.407 137.71C69.6156 133.069 69.8241 128.4 69.4615 123.776C69.2127 120.591 68.6937 117.454 68.3027 114.295C67.7268 109.533 67.3927 104.722 67.3027 99.8976C67.2435 97.0169 67.3406 93.8186 68.798 91.7416C69.5089 90.7306 70.4568 90.1214 71.4213 89.6288C73.0398 88.8123 74.8479 88.3327 76.4831 89.078C78.1182 89.8233 79.4357 92.1693 79.0495 94.4667C78.8717 95.5328 78.367 96.466 78.2438 97.5483C78.0803 98.9806 78.6348 100.423 79.4286 101.391C83.6989 106.667 90.218 97.7881 92.3484 92.785Z" fill="#E3E8F4"/>
<path d="M92.6873 79.8721C93.9841 79.2189 95.3935 79.1061 96.7372 79.548C97.5926 79.8267 98.5168 80.3192 99.3059 79.7975C99.5927 79.6096 99.8297 79.3018 100.119 79.1268C100.901 78.6569 101.915 79.2337 102.607 78.55C103.043 78.119 103.185 77.3349 103.332 76.622C104.044 73.2191 105.502 70.1969 107.51 67.9637C107.261 70.4491 107.081 73.2779 108.282 75.1768C108.83 76.0387 109.598 76.5799 110.375 77.0011C111.491 77.6071 112.716 78.0089 113.894 77.6783C115.072 77.3478 116.174 76.1294 116.361 74.506C116.321 76.946 114.622 78.6504 114.145 81.0062C113.965 81.8876 113.982 82.8241 113.856 83.7249C113.536 86.0256 112.335 87.8726 111.285 89.7261C107.932 95.6877 105.79 102.755 105.076 110.212C105.028 111.097 104.892 111.969 104.673 112.804C104.441 113.445 104.178 114.064 103.887 114.658C102.15 118.669 102.685 123.731 103.275 128.312C104.197 135.49 105.117 142.522 106.609 149.517C106.865 150.713 107.154 151.961 107.806 152.832C107.6 155.661 105.512 156.951 103.635 158.173C101.782 159.381 100.073 160.964 98.5642 162.868C98.0239 163.548 97.4907 164.313 97.294 165.282C97.1092 166.192 97.2419 167.194 97.0049 168.078C96.768 168.963 95.8201 169.598 95.403 168.853C94.8817 166.186 95.7727 163.396 95.7324 160.635C95.7039 158.772 95.2584 156.961 95.1945 155.097C95.1328 152.988 95.5878 150.917 96.0713 148.915C97.4173 143.338 99.0429 137.813 99.5097 131.977C99.9766 126.141 99.1045 119.768 96.076 115.604C92.4811 110.639 90.4858 103.909 86.6326 99.35C86.0212 98.6274 85.3293 97.7298 85.4312 96.6345C85.5015 96.1522 85.6569 95.7006 85.8838 95.319C87.2061 92.7655 88.9644 90.682 90.3863 88.2387C91.8081 85.7955 92.9456 82.9828 92.6873 79.8721Z" fill="#3F3D56"/>
<path d="M80.0353 85.0988C79.7983 85.4228 79.6348 85.87 79.3599 86.1487C79.0389 86.4196 78.6727 86.5746 78.2959 86.5991C76.9013 86.8887 75.495 87.0608 74.0849 87.1143C72.9 87.1143 71.6701 86.9717 70.5303 87.4156C68.9402 88.0313 67.67 89.7487 66.8738 91.7253C66.0776 93.702 65.7008 95.9378 65.3951 98.164C64.7212 103.069 64.3605 108.044 64.3169 113.034C66.2702 110.904 68.0109 108.433 69.4947 105.685C70.6322 103.575 71.663 101.242 73.2863 99.8328C74.0328 99.1847 74.8716 98.757 75.6228 98.1251C77.1892 96.8063 78.2746 94.6741 79.3173 92.6165C80.085 91.0902 82.3055 88.1091 82.4808 86.2815C82.6301 84.5349 80.8647 83.6827 80.0353 85.0988Z" fill="#3F3D56"/>
<path d="M88.2914 54.5971C88.5841 54.8375 88.8644 55.1049 89.1303 55.3975C90.7394 56.9334 92.8935 56.6483 94.839 56.2983C95.4362 56.1946 96.0499 56.078 96.5618 55.6502C97.3841 54.9568 97.7704 53.531 97.6898 52.2122C97.6092 50.8934 97.1234 49.6782 96.531 48.6478C95.7461 47.2842 94.767 46.1526 93.653 45.3216C92.5389 44.4905 91.3131 43.9774 90.0498 43.8131C89.3956 43.6959 88.7305 43.7925 88.109 44.0951C87.3435 44.526 86.7677 45.4139 86.0615 46.0069C83.9785 47.7567 80.7699 46.979 79.4263 49.7722C78.4428 51.8331 79.1443 54.6328 78.6798 57.0015C78.3338 58.7707 77.3362 60.3812 77.5281 62.1861C77.6348 63.1582 78.0803 64.0072 78.4357 64.8756C79.252 66.872 79.6297 69.1482 79.5234 71.4309C80.4358 72.3122 81.7083 70.9416 81.9619 69.4575C82.2154 67.9734 81.924 66.3921 82.1396 64.895C82.5211 62.2671 84.2179 60.3391 84.9833 57.9282C85.5331 56.2011 86.4288 53.2848 88.2914 54.5971Z" fill="#3F3D56"/>
<path d="M65.8833 83.362C65.8122 83.9517 65.7671 84.603 66.0065 85.102C66.4804 86.0742 67.5658 85.7242 68.4189 85.87C69.7483 86.0936 70.7294 87.8142 70.9877 89.6224C71.246 91.4305 70.9379 93.271 70.6014 95.0468C69.8399 99.0713 68.9331 103.039 67.8809 106.949C65.0515 106.492 62.0727 105.004 60.5703 101.702C59.2054 98.6987 59.3452 94.8718 58.4778 91.5407C57.8688 89.1946 56.7764 87.1532 55.6958 85.1506C57.4328 85.4488 58.6745 82.7333 58.7764 80.3419C58.8783 77.9505 58.3286 75.5235 58.703 73.1872C58.7907 72.6331 65.6368 74.3796 66.3027 75.0115C68.2269 76.8358 66.1866 80.828 65.8833 83.362Z" fill="#FBBEBE"/>
<path opacity="0.1" d="M65.8833 83.362C65.8122 83.9517 65.7671 84.603 66.0065 85.102C66.4804 86.0742 67.5658 85.7242 68.4189 85.87C69.7483 86.0936 70.7294 87.8142 70.9877 89.6224C71.246 91.4305 70.9379 93.271 70.6014 95.0468C69.8399 99.0713 68.9331 103.039 67.8809 106.949C65.0515 106.492 62.0727 105.004 60.5703 101.702C59.2054 98.6987 59.3452 94.8718 58.4778 91.5407C57.8688 89.1946 56.7764 87.1532 55.6958 85.1506C57.4328 85.4488 58.6745 82.7333 58.7764 80.3419C58.8783 77.9505 58.3286 75.5235 58.703 73.1872C58.7907 72.6331 65.6368 74.3796 66.3027 75.0115C68.2269 76.8358 66.1866 80.828 65.8833 83.362Z" fill="black"/>
<path d="M64.3595 79.4508C69.4637 79.4508 73.6015 73.7928 73.6015 66.8133C73.6015 59.8338 69.4637 54.1758 64.3595 54.1758C59.2553 54.1758 55.1176 59.8338 55.1176 66.8133C55.1176 73.7928 59.2553 79.4508 64.3595 79.4508Z" fill="#FBBEBE"/>
<path d="M61.5135 81.5473C61.85 80.828 61.2765 79.8235 61.5396 79.049C61.696 78.5824 62.0917 78.3815 62.3974 78.0769C62.7808 77.6503 63.0866 77.1079 63.2908 76.4924C64.7297 72.7117 65.1652 68.3657 64.5231 64.1951C64.305 62.7953 64.1107 60.9353 65.0468 60.3067C65.3062 60.1483 65.5906 60.0815 65.8738 60.1123C67.561 60.1868 69.1914 61.7324 70.8289 61.1848C71.3878 60.977 71.887 60.5408 72.2597 59.9345C72.6323 59.3282 72.8607 58.5808 72.9143 57.7921C73.0209 55.6989 71.874 53.9037 70.746 52.4941C68.7151 49.9407 65.6202 49.3736 62.8619 49.3121L57.7314 49.1954C56.0892 49.1565 54.2479 49.2278 53.1057 50.8383C51.4611 53.1552 52.2881 56.9464 52.0512 60.1576C51.8497 62.7206 50.9121 65.0692 49.4445 66.687C48.3804 67.847 46.9159 68.9552 46.9349 70.8087C46.9349 71.4568 47.1387 72.0466 47.269 72.659C47.7927 75.0828 47.2927 77.7626 46.288 79.885C45.2832 82.0075 43.814 83.6406 42.2902 85.0696C41.475 85.8311 40.6314 86.5634 39.9869 87.5971C39.2802 88.7911 38.8606 90.2544 38.7854 91.7869C38.684 92.958 38.8601 94.1426 39.2878 95.1666C40.2902 97.3571 42.6955 97.6779 44.3424 96.4077C45.9894 95.1375 46.9941 92.7331 47.66 90.3158C48.0582 88.8803 48.4634 87.2374 49.4824 86.5926C50.7715 85.7728 52.2787 87.0689 53.1175 88.6405C53.9564 90.2121 54.473 92.1304 55.5465 93.4071C57.229 95.4097 60.0917 95.0856 61.5135 92.7331C62.5301 91.0449 62.7552 88.7086 62.6984 86.5213C62.6701 84.74 62.2579 83.0097 61.5135 81.5473Z" fill="#3F3D56"/>
<path d="M64.8311 98.0181C63.7766 98.326 62.6746 97.6455 61.8903 96.628C61.1059 95.6105 60.5774 94.2982 60.0277 93.028C58.6338 89.8239 57.0359 86.7943 55.2526 83.9743C53.6981 81.5214 51.5345 79.0295 49.2264 79.7878C48.4536 80.0927 47.7366 80.6172 47.1221 81.327C45.087 83.5303 43.494 86.4037 42.4923 89.6783C41.4906 92.9528 41.1128 96.5213 41.3945 100.05C41.5746 102.114 41.9845 104.133 42.1551 106.207C42.2701 107.916 42.3033 109.634 42.2547 111.349C42.1907 116.573 42.0604 122.097 40.0011 126.498C36.809 133.303 35.1005 141.429 32.7568 148.856C31.4914 152.871 30.733 157.145 29.9889 161.397C29.5482 163.92 29.1082 166.442 28.669 168.963L25.8016 185.456C25.5054 187.158 25.2092 188.94 25.522 190.641C25.9959 193.182 27.7424 194.957 29.5837 195.68C31.425 196.402 33.3753 196.279 35.2877 196.302C38.9465 196.351 42.6338 196.973 46.0676 198.71C47.0486 199.205 48.0273 199.798 49.0724 199.915C50.1174 200.032 51.1578 199.659 52.1365 199.141C54.8071 197.728 57.0963 195.252 59.5561 193.253C61.0926 191.987 62.7108 190.916 64.3903 190.055C65.234 189.624 66.1392 189.215 66.7198 188.272C67.1582 187.563 67.3549 186.636 67.4994 185.729C68.3004 180.622 67.7625 175.33 67.4994 170.12C67.2364 164.909 64.9591 159.404 66.843 154.861C67.2222 153.944 67.6748 153.062 67.8691 152.045C68.125 150.716 67.9094 149.287 68.125 147.946C68.2838 146.954 68.6653 146.063 68.926 145.114C69.381 143.442 69.4426 141.621 69.4379 139.835C69.4272 135.915 69.1255 132.007 68.5374 128.17C67.7909 123.309 70.2602 118.504 71.6749 113.912C72.182 112.269 72.9 110.717 73.1109 108.958C73.3005 107.37 73.0564 105.753 72.874 104.162C72.6017 101.696 72.4906 99.2019 72.5422 96.709C72.5872 94.4732 72.7602 92.1952 72.3692 90.0209C71.9782 87.8466 70.8621 85.7371 69.2578 85.2899C69.0779 85.2178 68.8885 85.2011 68.7033 85.2408C68.5182 85.2806 68.3417 85.3759 68.1866 85.52C68.0015 85.7683 67.8709 86.0826 67.8099 86.4273C67.2885 88.6113 67.3904 90.9638 67.0989 93.2321C66.8075 95.5004 66.4662 97.5386 64.8311 98.0181Z" fill="#FF5533"/>
<path d="M42.4679 111.936C42.5651 111.038 42.2594 109.846 41.5959 109.878C40.9845 109.91 40.712 110.957 40.7143 111.796C40.7167 112.636 40.7997 113.598 40.366 114.188C39.9821 114.709 39.347 114.693 38.9015 115.118C38.7443 115.271 38.6163 115.474 38.5285 115.709C38.4406 115.944 38.3954 116.205 38.3967 116.469C38.3967 116.919 38.546 117.35 38.5555 117.801C38.565 118.251 38.3446 118.773 38.0176 118.744C37.8496 119.129 37.7797 119.58 37.8187 120.025C37.8577 120.471 38.0035 120.886 38.2332 121.206C38.4039 121.433 38.6266 121.628 38.6835 121.945C38.7015 122.168 38.6886 122.393 38.6456 122.609C38.546 123.501 38.9963 124.499 39.6527 124.596C39.2854 124.955 39.3589 125.798 39.6954 126.216C40.0319 126.634 40.5153 126.715 40.9679 126.715C41.9952 126.707 43.011 126.42 43.9561 125.869C44.2797 125.723 44.5659 125.453 44.7808 125.092C44.8805 124.905 44.9283 124.676 44.9157 124.446C44.9031 124.215 44.8309 123.998 44.7121 123.834C45.1718 123.938 45.724 123.996 46.0249 123.51C46.4443 122.83 45.9941 121.822 45.551 121.164C45.7347 121.127 45.9065 121.016 46.0447 120.847C46.183 120.677 46.2818 120.456 46.3287 120.21C46.3757 119.964 46.3688 119.705 46.3089 119.464C46.249 119.224 46.1387 119.013 45.9917 118.857C45.8401 118.705 45.6339 118.572 45.6126 118.316C45.5912 118.06 45.75 117.895 45.8164 117.668C45.968 117.159 45.6221 116.641 45.2879 116.333C44.4964 115.613 43.3305 115.626 42.6267 114.901C41.9229 114.175 42.366 112.908 42.4679 111.936Z" fill="#BE6F72"/>
<path d="M91.3555 62.7661C90.7815 62.8452 90.204 62.8636 89.628 62.8212C89.5298 62.8065 89.4313 62.8452 89.3537 62.9288C89.2762 63.0124 89.2257 63.1344 89.2133 63.2684L88.1113 74.5708C88.0266 75.3913 87.7809 76.165 87.4004 76.8099C87.0867 77.3231 86.8536 77.919 86.7154 78.5606C86.5772 79.2022 86.5369 79.8758 86.5971 80.5396V99.7388C86.5971 99.7388 86.526 102.299 87.9644 102.299C89.686 102.595 91.4278 102.595 93.1494 102.299C93.1494 102.299 94.3011 102.001 94.3011 99.6384V80.734C94.3889 80.0744 94.3709 79.3967 94.2481 78.7476C94.1253 78.0986 93.9008 77.4938 93.5902 76.9752C93.2224 76.3279 92.9847 75.5605 92.9006 74.749L91.756 63.21C91.743 63.0803 91.6943 62.9622 91.62 62.8798C91.5456 62.7973 91.451 62.7567 91.3555 62.7661Z" fill="#3F3D56"/>
<path opacity="0.1" d="M91.3555 62.7661C90.7815 62.8452 90.204 62.8636 89.628 62.8212C89.5298 62.8065 89.4313 62.8452 89.3537 62.9288C89.2762 63.0124 89.2257 63.1344 89.2133 63.2684L88.1113 74.5708C88.0266 75.3913 87.7809 76.165 87.4004 76.8099C87.0867 77.3231 86.8536 77.919 86.7154 78.5606C86.5772 79.2022 86.5369 79.8758 86.5971 80.5396V99.7388C86.5971 99.7388 86.526 102.299 87.9644 102.299C89.686 102.595 91.4278 102.595 93.1494 102.299C93.1494 102.299 94.3011 102.001 94.3011 99.6384V80.734C94.3889 80.0744 94.3709 79.3967 94.2481 78.7476C94.1253 78.0986 93.9008 77.4938 93.5902 76.9752C93.2224 76.3279 92.9847 75.5605 92.9006 74.749L91.756 63.21C91.743 63.0803 91.6943 62.9622 91.62 62.8798C91.5456 62.7973 91.451 62.7567 91.3555 62.7661Z" fill="black"/>
<path d="M91.3626 80.8831H89.6161C88.1699 80.8831 86.9976 82.4862 86.9976 84.4637V93.4492C86.9976 95.4268 88.1699 97.0298 89.6161 97.0298H91.3626C92.8088 97.0298 93.9812 95.4268 93.9812 93.4492V84.4637C93.9812 82.4862 92.8088 80.8831 91.3626 80.8831Z" fill="#FF5533"/>
<path d="M114.832 13.9272C114.326 14.3078 113.798 14.6329 113.254 14.8993C113.16 14.9377 113.08 15.0248 113.032 15.1421C112.984 15.2594 112.971 15.3978 112.996 15.5279L115.162 26.5452C115.317 27.3449 115.31 28.187 115.143 28.982C114.997 29.6206 114.949 30.2936 115.002 30.9588C115.055 31.624 115.208 32.2671 115.451 32.8477L120.859 50.5661C120.859 50.5661 121.513 52.964 122.842 52.2057C124.516 51.5709 126.124 50.6498 127.629 49.4644C127.629 49.4644 128.608 48.583 127.944 46.4055L122.619 28.9593C122.515 28.3042 122.307 27.6881 122.011 27.1533C121.716 26.6185 121.338 26.1777 120.906 25.8615C120.385 25.4582 119.95 24.8764 119.643 24.1732L115.337 14.1281C115.288 14.0119 115.208 13.926 115.114 13.8886C115.02 13.8511 114.919 13.865 114.832 13.9272Z" fill="#3F3D56"/>
<path d="M119.945 30.6464L118.334 31.566C116.999 32.3276 116.368 34.4244 116.925 36.2494L119.456 44.542C120.013 46.367 121.546 47.2291 122.881 46.4675L124.493 45.5478C125.827 44.7863 126.458 42.6895 125.901 40.8645L123.37 32.5719C122.813 30.7469 121.28 29.8848 119.945 30.6464Z" fill="#FF5533"/>
<path d="M48.3307 81.8811C45.7832 83.3165 44.7761 87.7818 45.3732 91.4564C45.9704 95.131 47.769 98.1931 49.5226 101.106L54.4375 109.304C55.7953 111.573 57.2811 113.961 59.3523 114.751C62.3808 115.908 65.4093 113.271 68.0279 110.886C75.8441 103.764 84.1991 97.8144 92.948 93.1414C93.8034 92.6877 94.6802 92.2276 95.384 91.4175C96.8438 89.739 97.2538 86.6444 96.4409 84.2887C95.6281 81.9329 93.7347 80.4002 91.8271 80.3808C89.9194 80.3613 88.0639 81.7417 86.917 83.8285C86.3696 84.8233 85.9691 85.9607 85.4407 86.9717C84.1041 89.5121 82.0188 91.0837 79.9784 92.503C75.0588 95.9352 69.9945 98.9649 64.8121 101.576C63.8643 102.049 62.7955 102.5 61.9021 101.874C61.3547 101.489 60.985 100.759 60.6533 100.047C59.1415 96.7927 57.939 93.2886 57.075 89.6191C56.428 86.8648 55.9043 83.8642 54.3498 81.907C52.1459 79.1332 48.1553 79.7975 46.5036 83.2031C46.5036 83.2031 44.5675 87.0754 45.7524 88.6956C46.9373 90.3158 48.3307 81.8811 48.3307 81.8811Z" fill="#FBBEBE"/>
<path d="M181.235 68.4724C181.581 69.7329 181.59 71.1133 181.54 72.4581C181.479 74.0977 181.178 76.0225 180.064 76.6479C179.339 77.0465 178.443 76.7451 177.799 77.3478C177.017 78.0737 177.054 79.6355 177.175 80.9122C177.509 84.4216 177.886 88.0605 179.284 91.0287C180.036 92.6197 181.052 93.9451 182.083 95.212C184.138 97.746 186.391 100.222 189.09 101.067C189.53 101.237 189.993 101.264 190.441 101.145C190.883 100.958 191.285 100.624 191.609 100.173C193.173 98.2094 193.979 95.4065 195.022 92.866C195.759 91.0481 196.638 89.3016 197.053 87.299C197.394 85.5493 197.371 83.7039 196.987 81.9708C196.603 80.2378 195.872 78.686 194.877 77.4904C194.415 76.9493 193.903 76.4956 193.455 75.935C192.285 74.4833 191.602 72.3998 191.323 70.2741C191.043 68.1484 191.086 65.9611 191.221 63.7933C188.851 63.5438 186.498 63.9359 184.185 64.5678C183.156 64.8497 181.709 64.9793 180.777 65.6501C179.73 66.4116 180.948 67.3869 181.235 68.4724Z" fill="#FBBEBE"/>
<path opacity="0.1" d="M181.235 68.4724C181.581 69.7329 181.59 71.1133 181.54 72.4581C181.479 74.0977 181.178 76.0225 180.064 76.6479C179.339 77.0465 178.443 76.7451 177.799 77.3478C177.017 78.0737 177.054 79.6355 177.175 80.9122C177.509 84.4216 177.886 88.0605 179.284 91.0287C180.036 92.6197 181.052 93.9451 182.083 95.212C184.138 97.746 186.391 100.222 189.09 101.067C189.53 101.237 189.993 101.264 190.441 101.145C190.883 100.958 191.285 100.624 191.609 100.173C193.173 98.2094 193.979 95.4065 195.022 92.866C195.759 91.0481 196.638 89.3016 197.053 87.299C197.394 85.5493 197.371 83.7039 196.987 81.9708C196.603 80.2378 195.872 78.686 194.877 77.4904C194.415 76.9493 193.903 76.4956 193.455 75.935C192.285 74.4833 191.602 72.3998 191.323 70.2741C191.043 68.1484 191.086 65.9611 191.221 63.7933C188.851 63.5438 186.498 63.9359 184.185 64.5678C183.156 64.8497 181.709 64.9793 180.777 65.6501C179.73 66.4116 180.948 67.3869 181.235 68.4724Z" fill="black"/>
<path d="M168.012 78.0088C164.163 76.2039 162.324 69.1529 158.296 68.3622C157.661 68.2358 157.009 68.2845 156.386 68.0835C154.066 67.3318 153.068 63.6637 152.397 60.5367C150.137 50.1124 147.184 39.9117 142.99 30.6701C141.219 26.7817 138.421 23.5867 137.143 19.3288C136.85 18.3567 136.7 17.2485 136.172 16.4805C135.643 15.7126 134.513 15.6024 134.226 16.581C134.146 16.9276 134.128 17.2955 134.174 17.6535L134.451 21.6878L129.631 21.0948C129.186 20.9909 128.728 21.0353 128.297 21.2244C127.832 21.5427 127.461 22.0702 127.247 22.7183C125.617 26.9081 127.354 32.3973 130.231 35.0479C133.591 38.1425 138.39 38.6123 140.622 43.2298C141.949 45.9777 141.975 49.5129 142.85 52.5816C143.267 54.0495 143.876 55.3975 144.362 56.82C145.288 59.5322 145.762 62.4809 146.48 65.3065C147.509 69.3473 149.032 73.1126 150.551 76.8552C151.722 79.7457 152.921 82.6879 154.722 84.8979C155.907 86.3495 157.3 87.4254 158.694 88.4623C162.12 91.0222 166.161 93.4849 169.791 91.5212C170 87.0948 169.187 82.1597 168.012 78.0088Z" fill="#FBBEBE"/>
<path d="M179.697 217.501C179.405 221.729 177.528 225.559 177.09 229.629C174.199 229.01 171.353 228.213 168.599 227.306C168.26 227.196 167.924 227.082 167.585 226.982C169.144 221.149 167.786 214.617 168.199 208.405C168.239 207.809 168.296 207.212 168.372 206.623C171.943 204.957 175.168 202.734 178.912 203.382C178.986 204.419 179.062 205.459 179.135 206.496C179.285 208.568 179.434 210.638 179.581 212.705C179.731 214.295 179.77 215.901 179.697 217.501Z" fill="#FBBEBE"/>
<path d="M204.394 228.077C202.991 228.661 201.55 229.169 200.046 229.587C199.794 229.659 199.541 229.727 199.287 229.791C197.747 230.187 196.188 230.475 194.612 230.673C194.451 226.169 192.242 222.027 191.92 217.403C191.854 216.254 191.863 215.099 191.946 213.952C191.974 213.499 192.007 213.045 192.038 212.591L192.707 203.269C193.238 203.177 193.775 203.142 194.311 203.162C197.391 203.262 200.195 205.087 203.247 206.509C203.475 208.476 203.554 210.47 203.484 212.459C203.368 217.52 202.773 222.643 204.148 227.287C204.226 227.549 204.311 227.812 204.394 228.077Z" fill="#FBBEBE"/>
<path d="M164.393 157.003C164.808 161.423 163.156 165.655 162.44 170C161.966 172.874 161.902 175.833 161.838 178.781L161.464 196.445C161.426 198.211 161.393 200.009 161.786 201.704C162.578 205.1 165.016 207.394 167.554 208.21C170.092 209.027 172.746 208.612 175.332 208.146C176.599 207.915 177.922 207.647 178.972 206.645C180.415 205.268 181.045 202.815 181.59 200.527L183.128 194.069C184.898 199.52 184.149 205.479 185.211 211.263C185.279 211.798 185.442 212.302 185.685 212.731C186.133 213.411 186.87 213.518 187.541 213.583C192.185 214.03 196.894 214.474 201.463 213.259C202.719 212.935 204.029 212.41 204.896 211.12C205.906 209.62 206.081 207.413 206.069 205.375C206.005 198.373 204.155 191.616 203.742 184.637C203.565 181.646 203.652 178.639 203.574 175.638C203.513 173.381 203.358 171.131 203.112 168.898C203.034 167.875 202.829 166.878 202.505 165.949C201.794 164.135 200.318 163.15 198.92 162.385C188.057 156.351 176.109 156.41 164.393 157.003Z" fill="#FF5533"/>
<path d="M184.505 70.0537C190.133 70.0537 194.695 63.8154 194.695 56.1201C194.695 48.4248 190.133 42.1865 184.505 42.1865C178.877 42.1865 174.315 48.4248 174.315 56.1201C174.315 63.8154 178.877 70.0537 184.505 70.0537Z" fill="#FBBEBE"/>
<path d="M193.387 80.6627C192.631 82.931 191.441 85.1993 189.671 85.7761C188.043 86.3107 186.318 85.2382 185.119 83.6407C183.92 82.0431 183.135 79.9693 182.303 77.983C181.697 76.5313 181.021 75.0666 179.995 74.1528C178.592 72.9085 176.782 72.9409 175.128 73.3071C173.474 73.6733 171.832 74.3278 170.151 74.1788C168.059 73.9876 165.926 72.5586 163.952 73.5112C164.592 77.4256 164.362 81.7288 164.289 85.7404C164.301 86.3599 164.237 86.9777 164.099 87.568C163.927 88.1184 163.694 88.6297 163.41 89.0845L161.514 92.4253C163.547 94.5056 165.305 97.2211 166.016 100.555C166.417 102.454 166.293 104.47 166.279 106.446C166.234 112.25 167.156 118.031 166.865 123.821C166.523 130.603 164.542 137.013 163.521 143.665C162.646 149.376 162.481 155.248 163.033 161.034C173.654 166.06 184.597 168.632 195.825 169.475C197.809 169.624 199.951 169.647 201.579 168.088C202.932 166.792 203.69 164.572 203.949 162.336C204.207 160.101 204.029 157.826 203.849 155.577C203.361 149.496 202.873 143.415 202.387 137.334C202.11 133.873 201.832 130.393 202.012 126.922C202.148 124.33 202.536 121.786 202.922 119.249L205.292 103.676C205.631 101.463 205.972 99.2334 206.643 97.1692C207.193 95.4842 207.953 93.9289 208.56 92.2892C209.283 90.3233 209.782 88.2174 210.039 86.045C210.142 85.4145 210.135 84.7597 210.02 84.1332C209.766 83.0704 208.991 82.432 208.269 81.9103C203.861 78.7431 199.138 76.4777 194.249 75.1865C193.917 77.0951 193.981 78.8838 193.387 80.6627Z" fill="#E3E8F4"/>
<path d="M192.403 71.3304C193.588 68.2261 195.804 66.0486 197.091 63.0156C197.802 61.2961 198.199 59.3675 198.25 57.3933C198.3 55.4191 198.002 53.4573 197.38 51.6743C196.927 50.4105 196.313 49.2505 195.958 47.9284C195.562 46.4249 195.524 44.769 195.067 43.2979C194.439 41.2824 193.079 39.8307 191.597 38.9947C190.116 38.1587 188.517 37.8573 186.922 37.5657L181.538 36.5741C180.758 36.4315 179.95 36.289 179.192 36.5741C178.434 36.8593 177.727 37.705 177.666 38.7808C177.592 40.0543 178.41 41.2403 178.22 42.491C178.152 42.9317 177.962 43.3789 178.071 43.8066C178.168 44.0924 178.336 44.3219 178.545 44.4547C179.822 45.4268 181.348 45.5143 182.732 46.1494C184.116 46.7845 185.505 48.3788 185.365 50.3619C185.289 51.428 184.787 52.5362 185.128 53.4921C185.455 54.3768 186.313 54.5388 186.998 54.8142C189.214 55.6923 190.768 58.9781 190.446 62.1051C190.346 63.0772 190.09 64.0072 190.038 64.9825C189.865 68.3979 190.259 69.3732 192.299 71.3596L192.403 71.3304Z" fill="#3F3D56"/>
<path d="M206.245 86.1001C206.256 86.7469 206.169 87.3899 205.991 87.9892C205.252 90.1441 202.989 90.008 201.489 91.2296C199.621 92.7526 199.209 96.1517 199.038 99.1134C198.844 102.467 198.711 105.87 199.214 109.159C199.716 112.448 200.925 115.656 202.944 117.584C205.401 119.92 208.742 120.001 211.548 118.578C214.354 117.156 216.698 114.405 218.731 111.398C220.66 108.546 222.387 105.367 223.423 101.748C223.605 101.1 223.767 100.413 223.62 99.7648C223.399 98.7927 222.624 98.352 221.994 97.8205C220.522 96.6054 219.541 94.4862 219.032 92.2471C218.522 90.008 218.437 87.6263 218.42 85.277C218.402 82.837 218.397 80.1702 217.259 78.2875C216.122 76.4049 214.15 75.8767 212.354 75.8961C210.885 75.8961 206.818 76.0873 205.816 77.8404C204.994 79.2985 206.304 84.0133 206.245 86.1001Z" fill="#BE6F72"/>
<path opacity="0.1" d="M206.245 86.1001C206.256 86.7469 206.169 87.3899 205.991 87.9892C205.252 90.1441 202.989 90.008 201.489 91.2296C199.621 92.7526 199.209 96.1517 199.038 99.1134C198.844 102.467 198.711 105.87 199.214 109.159C199.716 112.448 200.925 115.656 202.944 117.584C205.401 119.92 208.742 120.001 211.548 118.578C214.354 117.156 216.698 114.405 218.731 111.398C220.66 108.546 222.387 105.367 223.423 101.748C223.605 101.1 223.767 100.413 223.62 99.7648C223.399 98.7927 222.624 98.352 221.994 97.8205C220.522 96.6054 219.541 94.4862 219.032 92.2471C218.522 90.008 218.437 87.6263 218.42 85.277C218.402 82.837 218.397 80.1702 217.259 78.2875C216.122 76.4049 214.15 75.8767 212.354 75.8961C210.885 75.8961 206.818 76.0873 205.816 77.8404C204.994 79.2985 206.304 84.0133 206.245 86.1001Z" fill="black"/>
<path d="M193.609 173C193.683 173.494 193.853 173.951 194.102 174.323C194.336 174.575 194.609 174.751 194.901 174.838C202.678 177.958 210.987 176.714 219.039 175.44C217.937 170.852 216.828 166.212 216.522 161.4C216.269 157.43 216.553 153.299 215.525 149.576C215.221 148.474 197.543 153.545 195.799 153.957C194.906 154.167 193.877 154.096 193.244 155.065C192.481 156.238 192.417 159.031 192.337 160.493C192.109 164.715 192.747 168.966 193.609 173Z" fill="#BE6F72"/>
<path d="M211.318 224.438C209.897 225.339 208.43 226.178 206.911 226.93C206.089 227.338 205.25 227.721 204.394 228.077C202.991 228.66 201.55 229.169 200.046 229.587C199.188 226.613 198.329 223.637 197.47 220.66C196.837 218.469 196.204 216.269 195.676 214.03C195.308 212.501 195.006 210.944 194.771 209.367C193.995 204.007 194.197 198.468 195.358 193.24C198.643 194.086 201.854 194.636 205.088 195.278C206.816 195.602 208.548 195.984 210.302 196.435C210.439 197.997 210.564 199.559 210.676 201.12C210.847 203.531 210.987 205.942 211.096 208.353C211.337 213.71 211.412 219.072 211.318 224.438Z" fill="#BE6F72"/>
<path opacity="0.1" d="M211.318 224.438C209.897 225.339 208.43 226.178 206.911 226.93C206.089 227.338 205.25 227.721 204.394 228.077C202.991 228.66 201.55 229.169 200.046 229.587C199.188 226.613 198.329 223.637 197.47 220.66C196.837 218.469 196.204 216.269 195.676 214.03C195.308 212.501 195.006 210.944 194.771 209.367C193.995 204.007 194.197 198.468 195.358 193.24C198.643 194.086 201.854 194.636 205.088 195.278C206.816 195.602 208.548 195.984 210.302 196.435C210.439 197.997 210.564 199.559 210.676 201.12C210.847 203.531 210.987 205.942 211.096 208.353C211.337 213.71 211.412 219.072 211.318 224.438Z" fill="black"/>
<path d="M229.542 210.398C229.561 212.264 229.172 214.169 228.812 216C228.786 216.13 228.762 216.256 228.738 216.386C227.881 216.021 227.142 215.263 226.646 214.241C226.389 213.686 226.2 213.079 226.084 212.442C225.011 213.44 223.929 214.429 222.838 215.407C219.266 218.615 215.491 221.801 211.318 224.438C209.897 225.339 208.43 226.178 206.911 226.93C206.595 225.418 206.295 223.896 206.01 222.364C205.699 220.787 205.456 219.187 205.28 217.572C204.933 213.903 205.202 210.174 206.067 206.668L206.174 206.247C206.576 204.688 207.097 203.19 207.726 201.778C208.316 200.482 209.484 200.699 210.676 201.13C211.216 201.321 211.764 201.551 212.262 201.694C215.359 202.582 218.575 201.665 221.74 201.908C223.249 202.011 224.728 202.525 226.089 203.421C227.613 204.468 228.84 206.069 229.321 208.282C229.39 208.6 229.442 208.925 229.478 209.254C229.518 209.633 229.539 210.015 229.542 210.398Z" fill="#BE6F72"/>
<path d="M172.531 61.1621C167.637 54.6814 162.075 49.1889 156.386 44.0529C154.905 42.7833 153.481 41.3951 152.12 39.8955C150.698 38.2753 149.459 36.3732 147.949 34.9151C146.44 33.4569 144.573 32.4556 142.76 32.9352C140.947 33.4148 139.335 35.7867 139.601 38.2689C139.838 40.4529 141.274 41.9499 142.601 43.204C145.113 45.5792 147.637 47.9608 150.369 49.8241C151.318 50.4124 152.239 51.0834 153.125 51.8331C154.826 53.4014 156.066 55.7215 157.353 57.9023C162.209 66.1514 168.158 73.0768 174.889 78.3167C174.969 78.3815 177.772 70.1088 177.654 69.0362C177.393 66.5703 173.82 62.8731 172.531 61.1621Z" fill="#BE6F72"/>
<path d="M214.385 165.878C210.607 166.202 206.984 167.946 203.29 169.057C199.595 170.168 195.581 170.599 192.152 168.409L194.237 187.88C194.353 188.963 194.474 190.071 194.301 191.137C194.143 192.154 193.73 193.114 193.766 194.154C193.82 195.8 194.951 196.957 196.015 197.718C199.106 199.95 202.569 201.041 206.062 200.884C205.804 202.31 205.482 203.719 205.221 205.145C206.963 207.702 209.811 207.874 212.297 208.684C214.193 209.296 215.97 210.359 217.828 211.107C220.075 212.014 222.408 212.459 224.75 212.426C226.331 212.404 228.006 212.102 229.234 210.754C230.743 209.092 231.212 206.266 231.539 203.655C231.722 202.196 231.89 200.719 231.776 199.248C231.653 197.556 231.174 195.955 230.7 194.387L227.454 183.613C226.864 181.669 226.269 179.695 225.558 177.819C223.236 171.75 219.383 165.454 214.385 165.878Z" fill="#3F3D56"/>
<path d="M217.276 98.6014C217.556 97.5933 218.074 96.7414 218.748 96.18C219.421 95.6186 220.212 95.3795 220.996 95.5004C221.944 95.6818 222.79 96.3915 223.603 97.0849L228.129 100.947C228.879 101.558 229.599 102.235 230.283 102.976C233.404 106.514 234.608 112.331 234.952 117.856C235.295 123.381 234.952 128.999 235.755 134.433C233.845 136.598 231.726 138.429 229.816 140.59C228.816 141.721 227.805 142.858 227.046 144.313C226.444 145.457 226.015 146.766 225.387 147.878C224.359 149.634 222.867 150.768 221.233 151.034C222.269 151.857 222.849 153.454 223.129 155.046C223.409 156.637 223.485 158.286 223.795 159.877C224.222 162.038 225.105 164.012 225.397 166.215C225.601 167.735 225.511 169.293 225.584 170.836C225.954 178.817 230.535 185.793 230.238 193.778C228.076 192.703 226.031 191.233 224.158 189.406C223.314 188.58 222.499 187.686 221.7 186.795L215.664 180.103C212.728 176.863 209.764 173.551 207.43 169.481C205.965 166.928 204.771 164.102 203.302 161.555C201.832 159.009 200.024 156.695 197.78 155.626C197.451 156.303 196.865 156.773 196.536 157.45C196.478 157.557 196.432 157.675 196.399 157.8C196.359 158.102 196.386 158.414 196.477 158.694C196.741 160.005 196.9 161.351 196.951 162.709L197.1 165.146C197.156 165.792 197.156 166.444 197.1 167.09C196.875 169.174 195.463 170.791 193.939 171.115C193.718 171.18 193.49 171.17 193.273 171.085C192.849 170.891 192.614 170.279 192.486 169.695C191.887 166.928 192.806 164.008 192.88 161.128C192.89 160.397 192.872 159.666 192.825 158.937L192.683 156.063C191.306 155.671 190.515 153.649 190.15 151.792C189.164 146.779 188.171 141.591 188.742 136.459C188.894 135.085 189.159 133.691 188.979 132.318C188.742 130.48 187.775 128.99 187.266 127.259C185.607 121.618 189.131 115.493 188.804 109.437C188.666 106.894 187.486 104.684 186.775 102.325C186.407 100.95 185.93 99.6338 185.353 98.4005C184.628 96.9845 183.649 95.8503 182.699 94.7097C179.764 91.1887 176.981 87.4387 174.362 83.4786C173.018 83.2879 171.756 82.4976 170.772 81.2297C170.147 80.4196 169.632 79.3503 169.616 78.1741C169.599 76.9978 170.234 75.7632 171.095 75.7017C171.597 75.666 172.066 76.0063 172.557 76.1553C174.092 76.6154 175.637 75.0698 176.322 73.1288C177.007 71.1878 177.007 68.9552 176.995 66.8036C177.746 66.6214 178.518 66.7067 179.237 67.0512C179.956 67.3957 180.599 67.9879 181.102 68.7705C182.161 70.3453 182.851 72.309 183.685 74.1171C184.024 74.9205 184.46 75.6401 184.974 76.246C186.114 77.4839 187.756 77.7172 188.751 79.1624C189.256 79.9012 189.536 80.8798 189.998 81.6704C191.297 83.8966 193.673 84.1688 195.448 85.6334C197.223 87.0981 198.458 89.7746 200.425 90.643C201.136 90.9671 201.911 91.0092 202.614 91.3689C204.24 92.1952 205.233 94.5574 205.458 96.9067C205.683 99.256 205.299 101.631 204.911 103.945L203.998 109.359C203.797 110.558 203.643 112 204.29 112.856C204.595 113.202 204.954 113.449 205.34 113.578C206.998 114.317 208.847 115.043 210.406 113.996C211.143 113.497 211.721 112.655 212.25 111.793C214.563 108.067 216.1 103.187 217.276 98.6014Z" fill="#FF5533"/>
<path d="M235.98 208.79C235.653 211.755 234.459 214.672 232.504 216.029C231.332 216.82 229.979 216.948 228.738 216.386C227.881 216.021 227.142 215.263 226.646 214.241C226.389 213.686 226.2 213.079 226.084 212.442C226.084 212.41 226.072 212.374 226.068 212.342C225.889 211.195 225.815 210.023 225.847 208.852C225.847 207.034 225.926 205.217 226.084 203.411C226.216 201.891 226.435 200.388 226.738 198.914C227.179 196.811 227.814 194.786 228.397 192.757C228.7 191.688 228.992 190.615 229.231 189.517C229.376 188.869 229.499 188.201 229.598 187.527L229.634 187.284C229.653 187.148 229.67 187.012 229.686 186.876C229.923 185.029 229.992 183.117 230.601 181.448C232.023 177.531 234.791 178.532 235.212 182.145C235.244 182.425 235.262 182.707 235.267 182.991C235.331 187.563 234.004 192.031 234.61 196.62C234.782 197.739 234.997 198.844 235.255 199.931C235.468 200.933 235.66 201.947 235.807 202.974C236.105 204.886 236.163 206.852 235.98 208.79Z" fill="#BE6F72"/>
<path d="M237.284 157.949C237.347 159.822 237.284 161.717 237.558 163.555C238.201 167.897 240.639 171.74 240.369 176.153C240.303 177.229 240.011 178.386 239.324 178.917C238.637 179.449 237.499 179.407 237.274 180.476C237.21 180.774 237.243 181.098 237.172 181.393C237.023 182.022 236.461 182.291 235.987 182.274C235.513 182.258 235.039 182.044 234.549 182.099C232.831 182.297 232.2 185.44 230.67 186.519C229.639 187.245 228.3 186.843 227.449 185.771C226.598 184.698 226.226 183.026 226.293 181.442C226.342 180.246 226.62 179.092 226.767 177.913C227.034 175.81 226.895 173.655 226.755 171.529C226.549 168.415 226.335 165.262 225.587 162.31C225.233 160.917 224.764 159.585 224.459 158.173C224.023 156.173 223.923 154.07 223.878 151.987C223.786 147.602 224.006 142.914 225.921 139.388C227.359 136.744 229.421 134.596 231.049 132.149C232.068 130.616 232.362 130.137 233.487 131.436C234.414 132.502 235.383 133.973 235.487 135.419C235.772 139.122 235.487 142.765 235.994 146.536C236.502 150.308 237.151 154.077 237.284 157.949Z" fill="#FF5533"/>
<path d="M212.705 86.5796C219.379 86.5796 224.79 79.1807 224.79 70.0537C224.79 60.9267 219.379 53.5278 212.705 53.5278C206.03 53.5278 200.619 60.9267 200.619 70.0537C200.619 79.1807 206.03 86.5796 212.705 86.5796Z" fill="#BE6F72"/>
<path d="M223.771 101.667C224.037 101.158 224.352 100.61 224.802 100.504C225.142 100.468 225.482 100.566 225.783 100.785L228.966 102.603C229.826 100.661 230.333 98.4655 230.444 96.2003C230.511 94.8102 230.43 93.4006 230.625 92.0332C230.914 90.0047 231.793 88.1869 231.997 86.1389C232.158 84.4863 231.866 82.824 231.691 81.1747C231.151 76.0808 231.731 70.8832 231.421 65.7537C231.11 60.6242 229.606 55.1285 226.26 52.7728C225.312 52.1247 224.29 51.7359 223.304 51.2239C221.108 50.08 219.138 48.2492 216.968 47.0114C214.797 45.7736 212.247 45.2065 210.143 46.629C208.039 48.0515 206.814 52.0534 208.181 54.6652C208.631 55.5239 209.29 56.133 209.92 56.752C211.202 58.006 212.51 59.5549 212.807 61.6741C213.337 65.488 210.437 68.4789 209.619 72.2086C209.317 73.6651 209.291 75.2024 209.541 76.677C209.894 78.887 210.757 80.9738 210.726 83.2356C210.702 85.7144 209.617 87.96 209.413 90.426C209.34 91.33 209.385 92.247 209.302 93.1479C209.156 94.3362 208.898 95.4939 208.536 96.5924C206.641 103.073 204.719 109.622 201.901 115.448C204.918 115.518 207.9 114.565 210.581 112.674C210.196 115.172 209.458 117.543 208.408 119.654C210.819 119.273 213.139 118.166 215.2 116.414C214.7 118.863 213.975 121.216 213.044 123.416C213.124 123.228 214.615 122.768 214.89 122.554C215.455 122.115 215.909 121.452 216.193 120.652C216.999 118.682 217.501 116.307 218.247 114.259C219.843 109.869 221.69 105.659 223.771 101.667Z" fill="#3F3D56"/>
<path d="M132.115 2.49506C131.541 2.57413 130.963 2.59254 130.387 2.55014C130.289 2.53547 130.191 2.57412 130.113 2.65775C130.036 2.74139 129.985 2.86332 129.973 2.99731L128.871 14.2997C128.786 15.1202 128.54 15.894 128.16 16.5389C127.846 17.0521 127.613 17.648 127.475 18.2896C127.337 18.9312 127.296 19.6048 127.356 20.2685V39.4678C127.356 39.4678 127.285 42.0277 128.724 42.0277C130.445 42.3234 132.187 42.3234 133.909 42.0277C133.909 42.0277 135.06 41.7295 135.06 39.3673V20.4629C135.148 19.8034 135.13 19.1256 135.007 18.4766C134.885 17.8275 134.66 17.2227 134.35 16.7041C133.982 16.0569 133.744 15.2895 133.66 14.478L132.515 2.93899C132.502 2.80926 132.454 2.69116 132.379 2.6087C132.305 2.52624 132.21 2.48561 132.115 2.49506Z" fill="#3F3D56"/>
<path d="M132.122 20.6121H130.375C128.929 20.6121 127.757 22.2152 127.757 24.1927V33.1782C127.757 35.1558 128.929 36.7589 130.375 36.7589H132.122C133.568 36.7589 134.741 35.1558 134.741 33.1782V24.1927C134.741 22.2152 133.568 20.6121 132.122 20.6121Z" fill="#FF5533"/>
<path d="M148.466 19.021C147.892 19.1001 147.314 19.1185 146.738 19.0761C146.64 19.0614 146.542 19.1001 146.464 19.1837C146.387 19.2673 146.336 19.3893 146.324 19.5233L145.222 30.8257C145.137 31.6461 144.891 32.4199 144.511 33.0648C144.197 33.578 143.964 34.1739 143.826 34.8155C143.688 35.4571 143.647 36.1307 143.708 36.7945V55.9937C143.708 55.9937 143.636 58.5536 145.075 58.5536C146.796 58.8494 148.538 58.8494 150.26 58.5536C150.26 58.5536 151.412 58.2555 151.412 55.8932V36.9889C151.499 36.3293 151.481 35.6516 151.359 35.0025C151.236 34.3535 151.011 33.7487 150.701 33.2301C150.333 32.5828 150.095 31.8154 150.011 31.0039L148.866 19.4649C148.853 19.3352 148.805 19.2171 148.73 19.1346C148.656 19.0522 148.562 19.0115 148.466 19.021Z" fill="#3F3D56"/>
<path d="M148.473 37.1379H146.727C145.28 37.1379 144.108 38.741 144.108 40.7186V49.7041C144.108 51.6816 145.28 53.2847 146.727 53.2847H148.473C149.919 53.2847 151.092 51.6816 151.092 49.7041V40.7186C151.092 38.741 149.919 37.1379 148.473 37.1379Z" fill="#FF5533"/>
<g opacity="0.2">
<path opacity="0.2" d="M130.086 212.643C130.079 212.993 130.049 213.341 129.999 213.683C128.349 213.325 126.691 213.001 125.022 212.711C125.022 212.621 125.022 212.527 125.022 212.433C125.038 211.461 125.242 210.512 125.615 209.685C126.103 208.628 126.845 207.967 127.662 208.003C128.48 208.039 129.188 208.761 129.627 209.853C129.958 210.711 130.117 211.674 130.086 212.643Z" fill="#3F3D56"/>
<path opacity="0.2" d="M130.219 207.11C130.277 204.604 129.19 202.523 127.79 202.463C126.39 202.402 125.209 204.385 125.151 206.891C125.093 209.397 126.18 211.477 127.58 211.538C128.98 211.598 130.161 209.616 130.219 207.11Z" fill="#3F3D56"/>
<path opacity="0.2" d="M130.349 201.562C130.407 199.056 129.319 196.976 127.919 196.915C126.519 196.855 125.338 198.837 125.28 201.343C125.222 203.849 126.31 205.93 127.709 205.99C129.109 206.051 130.291 204.068 130.349 201.562Z" fill="#3F3D56"/>
<path opacity="0.2" d="M130.476 196.015C130.533 193.509 129.446 191.428 128.046 191.368C126.646 191.307 125.465 193.29 125.407 195.796C125.349 198.302 126.437 200.382 127.836 200.443C129.236 200.503 130.418 198.521 130.476 196.015Z" fill="#3F3D56"/>
<path opacity="0.2" d="M130.605 190.467C130.663 187.961 129.575 185.88 128.175 185.82C126.776 185.759 125.594 187.742 125.536 190.248C125.478 192.754 126.566 194.834 127.966 194.895C129.365 194.955 130.547 192.973 130.605 190.467Z" fill="#3F3D56"/>
<path opacity="0.2" d="M119.446 151.97C119.113 151.353 118.812 150.703 118.546 150.026L125.243 148.818L118.034 148.581C117.391 146.494 117.065 144.25 117.078 141.986C117.091 139.722 117.441 137.485 118.107 135.412L127.615 142.687L118.906 133.341C119.784 131.399 120.947 129.724 122.32 128.423C123.693 127.122 125.247 126.221 126.886 125.779C128.525 125.336 130.213 125.36 131.845 125.849C133.477 126.338 135.017 127.282 136.37 128.622C137.723 129.962 138.86 131.669 139.708 133.637C140.557 135.604 141.1 137.79 141.304 140.057C141.507 142.325 141.366 144.625 140.89 146.815C140.414 149.005 139.613 151.036 138.537 152.784C139.056 153.745 139.497 154.78 139.852 155.872L131.063 161.64L140.383 157.806C140.97 160.455 141.064 163.261 140.658 165.972C140.252 168.683 139.357 171.212 138.056 173.331C139.409 175.841 140.218 178.822 140.391 181.932C140.563 185.041 140.093 188.155 139.032 190.916C137.972 193.677 136.365 195.974 134.394 197.545C132.424 199.115 130.17 199.896 127.891 199.798C125.611 199.7 123.398 198.726 121.504 196.989C119.61 195.252 118.112 192.82 117.181 189.974C116.249 187.127 115.923 183.979 116.239 180.89C116.554 177.802 117.499 174.897 118.965 172.508C117.349 169.508 116.516 165.852 116.602 162.127C116.688 158.402 117.687 154.825 119.439 151.97H119.446Z" fill="#FF5533"/>
<path opacity="0.1" d="M140.899 163.176C140.816 166.902 139.814 170.481 138.056 173.331C139.409 175.841 140.218 178.822 140.391 181.932C140.563 185.041 140.093 188.155 139.032 190.916C137.972 193.677 136.365 195.974 134.394 197.545C132.424 199.115 130.17 199.896 127.891 199.798C125.611 199.7 123.398 198.726 121.504 196.989C119.61 195.252 118.112 192.82 117.181 189.973C116.249 187.127 115.923 183.979 116.239 180.89C116.554 177.802 117.499 174.897 118.965 172.508C117.408 169.614 140.942 161.312 140.899 163.176Z" fill="black"/>
</g>
</g>
<defs>
<clipPath id="clip0">
<rect width="269" height="231" fill="white"/>
</clipPath>
</defs>
</svg>
